<svg width="68" height="87" viewBox="0 0 68 87" fill="none" xmlns="http://www.w3.org/2000/svg">
<g id="Vector" filter="url(#filter0_di_328_48)">
<mask id="path-1-inside-1_328_48" fill="white">
<path d="M39.7662 80.0836C40.0056 79.6092 40.2598 79.1414 40.4845 78.659C41.0709 77.4006 41.6385 76.1342 42.233 74.8744C43.1194 72.9794 44.0758 71.1163 44.8869 69.1907C45.4558 67.8406 45.8526 66.416 46.2871 65.0127C46.9932 62.7336 47.7061 60.4546 48.345 58.1583C49.2462 54.9238 50.0936 51.676 50.9437 48.4268C51.5127 46.2368 52.0063 44.0282 52.5995 41.8449C52.7569 41.2668 52.465 40.8987 52.2484 40.496C51.7534 39.5658 51.1804 38.6861 50.6599 37.7731C50.0654 36.73 49.5031 35.6695 48.9113 34.625C48.3195 33.5805 47.7008 32.5905 47.1358 31.55C45.9952 29.4357 44.8882 27.3055 43.761 25.1846C43.6077 24.8976 43.4181 24.6637 43.0361 24.6185C42.806 24.5906 42.5949 24.4192 42.3743 24.3155C41.3924 23.8557 40.4132 23.3853 39.4259 22.9388C38.9511 22.7222 39.2793 22.4165 39.321 22.1507C39.3627 21.885 39.5617 21.8358 39.8106 21.9089C41.1382 22.2982 42.4711 22.673 43.7933 23.077C44.0109 23.1467 44.1997 23.2843 44.3314 23.469C45.4962 25.2564 46.9906 26.7607 48.4526 28.2955C50.0708 30.0058 51.6795 31.7334 53.3003 33.445C54.4185 34.6294 55.5394 35.8117 56.6629 36.9918C56.7975 37.1246 56.8782 37.316 57.0261 37.4197C57.7753 37.9379 57.9233 38.625 57.8022 39.4954C57.6422 40.6276 57.6677 41.7864 57.5076 42.9199C57.3597 44.0109 57.0893 45.0847 56.8714 46.1664C56.2957 49.0222 55.5681 51.8381 54.7193 54.6274C53.9298 57.2334 53.2397 59.8686 52.3816 62.4519C51.8328 64.1104 51.0728 65.701 50.4017 67.3183C49.5489 69.3745 48.6934 71.4294 47.8353 73.483C47.8141 73.5277 47.8022 73.5761 47.8004 73.6255C47.7985 73.6748 47.8067 73.7239 47.8245 73.7701C47.9348 73.6093 48.0505 73.4498 48.154 73.285C49.5798 71.01 51.006 68.7309 52.4327 66.4479C53.0756 65.418 53.7684 64.412 54.3158 63.3343C54.8794 62.2327 55.3031 61.0592 55.7765 59.9137C56.2366 58.8041 56.7181 57.7038 57.1216 56.5742C57.8681 54.4959 58.6012 52.4108 59.2737 50.3085C59.8279 48.5934 60.3314 46.8614 60.7842 45.1126C61.0909 43.9591 61.259 42.7631 61.4743 41.5791C61.7433 40.096 61.9908 38.6077 62.2719 37.126C62.3445 36.7446 62.2719 36.4948 61.9329 36.2755C59.7351 34.8469 57.7713 33.126 55.7779 31.4397C54.3548 30.233 52.9788 28.9679 51.5127 27.8158C50.0936 26.7009 49.1185 25.2311 48.0155 23.8584C47.382 23.0743 46.7162 22.3155 46.0396 21.566C45.9347 21.4491 45.7033 21.4119 45.5258 21.3986C44.5519 21.3242 43.5741 21.3029 42.6043 21.1993C41.6547 21.0983 40.7118 20.9242 39.7675 20.7727C39.6863 20.7644 39.6078 20.7391 39.5373 20.6986C39.4667 20.6581 39.4056 20.6032 39.358 20.5377C39.3105 20.4721 39.2776 20.3973 39.2614 20.3183C39.2453 20.2392 39.2463 20.1576 39.2645 20.079C39.2847 19.9979 39.4528 19.9076 39.5604 19.8983C40.1146 19.8478 40.6701 19.8212 41.2269 19.7893C42.4281 19.7202 43.6292 19.6431 44.8317 19.5953C45.0679 19.581 45.3027 19.639 45.5043 19.7614C46.5104 20.4737 47.4963 21.2139 48.4849 21.9487L53.8787 25.9607C55.6945 27.3099 57.5068 28.6583 59.3154 30.0058L62.9875 32.7406C63.0816 32.8111 63.1811 32.8735 63.3426 32.9785C63.3883 32.7832 63.434 32.6503 63.4502 32.5147C63.6358 30.9746 63.8954 29.4384 63.9734 27.8929C64.0501 26.4058 63.9398 24.9082 63.9088 23.4158C63.9088 23.3215 63.8833 23.2271 63.8846 23.1341C63.929 21.4292 63.4004 19.8119 63.1273 18.1534C62.8906 16.7169 62.2517 15.4 61.6572 14.0964C61.2348 13.1768 60.5327 12.3847 59.9503 11.5343C59.7741 11.2765 59.5817 11.0306 59.3961 10.7781L59.2993 10.8326C59.6477 11.8 59.9543 12.7701 60.3552 13.7043C60.8932 14.9429 61.0882 16.2531 61.3545 17.5581C61.5822 18.6954 61.6805 19.8543 61.6478 21.0132C61.5993 23.1687 61.559 25.3241 61.5133 27.4796C61.4975 27.6754 61.4706 27.8702 61.4326 28.063C61.1151 27.8729 60.799 27.7108 60.5125 27.5088C59.3948 26.7208 58.2878 25.9142 57.1727 25.1235C55.5954 24.0019 54.0154 22.883 52.4327 21.7667C50.3353 20.2783 48.2406 18.7878 46.1485 17.295C46.0468 17.2097 45.924 17.1525 45.7927 17.1292C45.6614 17.1058 45.5261 17.1172 45.4007 17.1621C43.4037 17.769 41.4018 18.3647 39.395 18.9495C39.1717 19.0146 38.9175 19.1873 38.7009 18.8764C38.5086 18.6013 38.487 18.4272 38.8233 18.2398C39.8065 17.695 40.7737 17.1209 41.7488 16.5601C42.724 15.9993 43.7247 15.4319 44.708 14.8565C44.8045 14.7849 44.9227 14.748 45.0433 14.7519C45.1639 14.7558 45.2795 14.8002 45.3711 14.8777C46.2279 15.4731 47.1009 16.0418 47.9644 16.6279C49.7991 17.8735 51.6324 19.1204 53.4644 20.3687C54.5324 21.0969 55.595 21.8305 56.6603 22.564C56.7786 22.6451 56.9077 22.7115 57.1001 22.8298C57.1379 22.6584 57.1604 22.4841 57.1673 22.3089C57.0705 20.9388 56.9763 19.5674 56.8593 18.2C56.7046 16.3887 56.246 14.6306 55.6864 12.919C55.1713 11.3416 54.5593 9.75089 53.7051 8.33563C52.6544 6.61739 51.3629 5.05464 49.869 3.69382C49.5435 3.39615 49.1803 3.13835 48.8346 2.86327L48.875 2.75961C48.8713 2.86232 48.8859 2.96486 48.918 3.0626C49.8125 4.6679 50.6841 6.28382 51.6257 7.85855C52.5296 9.36817 53.0622 11.0187 53.6433 12.6558C53.7231 12.9404 53.7713 13.2327 53.7872 13.5276C53.9002 14.5309 54.0024 15.5342 54.1073 16.5388C54.1039 16.6076 54.0931 16.6757 54.075 16.7422C53.9584 16.7005 53.8439 16.6531 53.732 16.6L45.8203 12.2678C45.3697 12.0206 44.9111 11.7867 44.4632 11.5356C44.2681 11.4266 44.1511 11.4386 43.9857 11.6233C43.071 12.6505 42.1725 13.6964 41.1947 14.6611C40.3715 15.4731 39.4461 16.1867 38.565 16.9362C38.4088 17.0383 38.2441 17.1272 38.0728 17.202C38.1804 16.782 38.2409 16.4578 38.3418 16.1508C38.4241 15.9425 38.4407 15.7145 38.3893 15.4968C38.3379 15.279 38.221 15.0817 38.0539 14.9309C37.2106 14.0738 36.3591 13.2219 35.5104 12.3701C35.48 12.3442 35.4436 12.326 35.4045 12.3169C35.3654 12.3079 35.3247 12.3084 35.2858 12.3183C35.3813 12.5336 35.4781 12.7502 35.5736 12.9668C35.9274 13.7734 36.2461 14.5934 36.1601 15.4917C36.1214 15.7671 36.0301 16.0327 35.8911 16.2744C35.8439 16.3293 35.7837 16.3719 35.7159 16.3983C35.6481 16.4248 35.5747 16.4342 35.5023 16.4259C34.5187 16.2044 33.4972 16.2044 32.5136 16.4259C32.4414 16.4291 32.3694 16.416 32.3032 16.3874C32.237 16.3588 32.1782 16.3156 32.1316 16.2611C31.7361 15.7402 31.7751 15.1329 31.9271 14.5548C32.0872 13.9475 32.3414 13.3588 32.5566 12.7688C32.6091 12.6226 32.6683 12.4804 32.7248 12.3356L32.6414 12.2718C32.5351 12.3595 32.4221 12.4406 32.3239 12.5376C31.681 13.1582 31.0246 13.7655 30.4072 14.41C30.1199 14.7148 29.8751 15.0562 29.6795 15.4252C29.5921 15.586 29.6419 15.8399 29.6795 16.0432C29.7441 16.394 29.8477 16.7382 29.9351 17.085L29.8396 17.1634C29.4522 16.8976 29.0258 16.6877 28.6855 16.3781C27.557 15.3482 26.4393 14.3037 25.3578 13.2259C24.8723 12.7422 24.4728 12.1708 24.0531 11.6313C23.9078 11.4426 23.7841 11.4107 23.5823 11.5263C22.2157 12.2744 20.8438 13.008 19.4758 13.7535C17.7775 14.6811 16.0804 15.6113 14.3848 16.5442C14.2533 16.6068 14.1186 16.6627 13.9812 16.7116C13.9812 16.4458 13.9637 16.2478 13.9812 16.0472C14.0606 15.2498 14.1763 14.4525 14.2341 13.6432C14.3148 12.5017 14.7533 11.4598 15.1945 10.4419C15.8038 9.03728 16.5396 7.68846 17.2578 6.33033C17.8214 5.25526 18.4267 4.20411 19.0064 3.141C19.0569 3.03392 19.1017 2.92437 19.1409 2.81277C19.0668 2.83769 18.9959 2.87115 18.9297 2.91244C17.2121 4.56823 15.6195 6.329 14.3135 8.3343C13.5906 9.45861 13.0343 10.6794 12.6617 11.9595C12.2501 13.3389 11.8143 14.7183 11.5251 16.1256C11.2413 17.4956 11.1082 18.8963 10.9521 20.289C10.8768 20.9694 10.8943 21.6604 10.8768 22.3474C10.8833 22.5006 10.8995 22.6533 10.9252 22.8046C11.0639 22.7466 11.1987 22.68 11.3288 22.6052C13.9911 20.7864 16.6516 18.9658 19.3104 17.1435C20.4403 16.3741 21.5836 15.6246 22.7134 14.8538C22.7961 14.7859 22.8993 14.7472 23.0068 14.7439C23.1142 14.7405 23.2197 14.7726 23.3066 14.8352C25.2744 15.9741 27.2476 17.105 29.2141 18.2465C29.3554 18.3289 29.6177 18.3887 29.4643 18.6598C29.3419 18.883 29.2424 19.1249 28.8873 19.0159C27.4615 18.5729 26.0339 18.1415 24.6046 17.7216C23.8796 17.5049 23.1519 17.2976 22.4188 17.1076C22.2877 17.092 22.1555 17.1262 22.049 17.2033C21.4343 17.6219 20.8276 18.0511 20.225 18.4843C18.9782 19.38 17.7394 20.2863 16.4884 21.1767C15.5644 21.8411 14.6215 22.471 13.6947 23.1261C11.3557 24.778 9.01928 26.4364 6.60488 28.1467C6.57394 27.8317 6.53224 27.5792 6.52686 27.3241C6.48651 25.4362 6.45065 23.5478 6.41926 21.6591C6.40984 21.1209 6.39908 20.5813 6.41926 20.0431C6.47575 18.2279 6.82278 16.4551 7.32853 14.7276C7.59754 13.8106 8.01316 12.9402 8.34808 12.0419C8.49997 11.6353 8.60993 11.2145 8.67628 10.7861C8.57137 10.919 8.45838 11.0346 8.36422 11.1688C7.78585 12.0007 7.14021 12.7967 6.6533 13.6778C6.14286 14.5815 5.72947 15.5355 5.41987 16.5242C5.01635 17.8744 4.73927 19.2657 4.44335 20.6438C4.01427 22.6451 4.0479 24.6929 4.00217 26.7195C3.97258 28.0404 4.25235 29.3693 4.39627 30.6942C4.46084 31.2975 4.52988 31.9003 4.60341 32.5028C4.61955 32.6357 4.65857 32.7792 4.7043 32.9985C5.09167 32.7207 5.41987 32.4921 5.74134 32.2543C8.14363 30.4691 10.5455 28.6836 12.9469 26.8975C14.8739 25.4552 16.8014 24.0107 18.7293 22.564C19.9991 21.6161 21.2733 20.6748 22.552 19.7401C22.7042 19.6329 22.887 19.5762 23.0739 19.578C24.809 19.6631 26.5442 19.7667 28.2793 19.869C28.4501 19.8783 28.6196 19.9156 28.7851 19.9395C28.7474 20.6557 28.6869 20.7116 28.0507 20.8046C27.1239 20.9375 26.2039 21.1235 25.2744 21.2245C24.4001 21.3202 23.5164 21.3574 22.6354 21.3773C22.4679 21.3745 22.3023 21.4119 22.1528 21.4865C22.0033 21.5611 21.8744 21.6704 21.7772 21.8052C20.4577 23.4331 19.1557 25.077 17.7743 26.6517C17.1314 27.3866 16.3351 27.9925 15.5859 28.6291C13.3988 30.4895 11.2158 32.35 8.99506 34.1732C8.06562 34.936 7.0622 35.6097 6.07357 36.2994C5.76825 36.5134 5.69561 36.7446 5.75748 37.0874C6.161 39.3465 6.56453 41.6057 6.96804 43.8568C7.32314 45.8076 7.95398 47.688 8.54446 49.571C9.22776 51.753 9.99579 53.9125 10.78 56.0626C11.4081 57.7795 12.1519 59.4367 12.7639 61.1469C13.3316 62.7416 14.1695 64.1609 15.0802 65.5682C16.2396 67.3568 17.3412 69.1841 18.4643 70.9967C18.9741 71.8179 19.4758 72.6432 19.9843 73.4657C20.0576 73.5994 20.1695 73.7086 20.3057 73.7794C20.2832 73.6894 20.2559 73.6007 20.2237 73.5136C19.2983 71.2864 18.3823 69.0538 17.4381 66.8346C16.4346 64.4771 15.4312 62.1263 14.8111 59.6267C14.3969 57.9536 13.8588 56.3045 13.3692 54.6567C12.9657 53.2879 12.503 51.9324 12.1506 50.5491C11.7565 49.0102 11.5171 47.4302 11.1028 45.898C10.4666 43.5445 10.4128 41.1299 10.2029 38.7299C10.1852 38.5913 10.2003 38.4505 10.247 38.3186C10.2937 38.1867 10.3707 38.0673 10.4719 37.9698C11.4902 36.9067 12.4896 35.8263 13.501 34.7552C15.2792 32.87 17.0579 30.9852 18.8369 29.1008C19.6386 28.2477 20.4658 27.4278 21.2271 26.5507C22.0234 25.6377 22.7874 24.6902 23.5137 23.7202C23.7808 23.3341 24.181 23.0572 24.6396 22.9414C25.8017 22.6252 26.9585 22.2863 28.1139 21.9487C28.3896 21.869 28.6263 21.78 28.7514 22.1747C28.9411 22.7647 28.9505 22.7806 28.4918 22.9946C27.2745 23.5607 26.0532 24.1188 24.848 24.7062C24.6226 24.8195 24.4355 24.9955 24.31 25.2125C23.3496 26.9812 22.4269 28.7673 21.4652 30.536C20.6877 31.973 19.8959 33.4007 19.0898 34.819C18.0944 36.5838 17.0843 38.3379 16.0782 40.096C15.9424 40.3573 15.7887 40.609 15.6182 40.8495C15.3492 41.1884 15.3828 41.5352 15.4837 41.9126C15.8711 43.401 16.2436 44.892 16.6203 46.383C17.1771 48.5903 17.7272 50.8002 18.2949 53.0049C18.6002 54.1929 18.9351 55.3729 19.2606 56.5556C19.7233 58.2354 20.147 59.9244 20.6608 61.5881C21.3979 63.9695 22.2373 66.3203 22.9609 68.707C23.4223 70.2286 24.1446 71.6306 24.8292 73.0445C25.6721 74.7933 26.5141 76.5421 27.3552 78.2909C27.5826 78.764 27.7897 79.2464 28.0184 79.7182C28.0984 79.8644 28.1882 80.0051 28.2874 80.1394L28.3923 80.0982C28.3371 79.8604 28.2901 79.6225 28.2255 79.3873C27.5772 77.0528 26.9262 74.7176 26.2725 72.3814C25.8689 70.9409 25.4345 69.5083 25.0458 68.0638C24.5777 66.3247 24.1293 64.5799 23.7007 62.8293C23.1788 60.7097 22.665 58.5875 22.1902 56.4507C21.7302 54.3856 21.3186 52.3098 20.8962 50.2368C20.5156 48.3763 20.1497 46.5159 19.7731 44.6488C19.7112 44.3392 19.613 44.0362 19.5592 43.7252C19.4678 43.2043 19.3803 42.7206 19.6292 42.1664C20.3367 40.5917 20.95 38.9771 21.5916 37.3731C22.4202 35.3081 23.2326 33.239 24.0666 31.1765C24.6705 29.6802 25.2865 28.1892 25.9281 26.7088C26.0613 26.421 26.2658 26.171 26.5227 25.9819C27.3297 25.3866 28.1717 24.8404 28.9882 24.261C29.2276 24.0909 29.3742 24.0776 29.5356 24.3514C29.7629 24.7354 30.0144 25.1049 30.2781 25.465C30.4368 25.6803 30.4126 25.8304 30.2377 26.0244C29.2814 27.0876 28.3425 28.1693 27.3862 29.2324C27.2852 29.3374 27.21 29.4639 27.1661 29.6021C27.1223 29.7403 27.1111 29.8866 27.1333 30.0297C27.3808 32.3765 27.5839 34.7273 27.8516 37.0728C27.9565 37.9937 28.173 38.904 28.3708 39.813C28.6828 41.2469 28.9801 42.686 29.3607 44.1013C29.8477 45.9113 30.6359 47.5883 31.8572 49.0421C32.1854 49.4328 32.2096 49.462 32.5862 49.1232C33.0812 48.6767 33.6448 48.4375 34.2971 48.577C34.673 48.6657 35.0279 48.8254 35.3423 49.0474C35.8803 49.4142 35.9852 49.4368 36.3847 48.884C37.1917 47.7757 37.9033 46.6142 38.2866 45.296C38.6955 43.8856 39.0744 42.4681 39.4232 41.0435C39.6801 39.999 39.9182 38.9452 40.0809 37.8834C40.2666 36.6715 40.3661 35.4463 40.4925 34.225C40.6378 32.8177 40.7615 31.4078 40.9176 30.0018C40.9399 29.8708 40.9311 29.7365 40.8919 29.6094C40.8527 29.4823 40.7841 29.366 40.6916 29.2696C39.7501 28.2145 38.8193 27.1434 37.867 26.0882C37.6437 25.8424 37.6195 25.6577 37.8226 25.3919C38.0849 25.049 38.3135 24.6796 38.5408 24.3128C38.6753 24.1029 38.8004 24.0816 39.0022 24.2225C39.9357 24.8736 40.9041 25.4783 41.7972 26.1799C42.0797 26.4019 42.1873 26.8603 42.3353 27.2258C43.3826 29.7498 44.4224 32.2711 45.4545 34.7898C46.3759 37.0489 47.2542 39.324 48.1998 41.5671C48.6033 42.5266 48.567 43.4448 48.3343 44.4349C47.9402 46.1544 47.6483 47.89 47.2986 49.6268C46.9031 51.5962 46.5157 53.567 46.0813 55.5284C45.5729 57.8168 45.0523 60.1038 44.4739 62.3762C43.7718 65.1403 43.0105 67.8911 42.26 70.6445C41.7502 72.5156 41.2162 74.38 40.6943 76.2471C40.367 77.4139 40.0433 78.5815 39.7232 79.7501C39.6962 79.8444 39.6895 79.9441 39.672 80.0411L39.7662 80.0836Z"/>
</mask>
<path d="M39.7662 80.0836C40.0056 79.6092 40.2598 79.1414 40.4845 78.659C41.0709 77.4006 41.6385 76.1342 42.233 74.8744C43.1194 72.9794 44.0758 71.1163 44.8869 69.1907C45.4558 67.8406 45.8526 66.416 46.2871 65.0127C46.9932 62.7336 47.7061 60.4546 48.345 58.1583C49.2462 54.9238 50.0936 51.676 50.9437 48.4268C51.5127 46.2368 52.0063 44.0282 52.5995 41.8449C52.7569 41.2668 52.465 40.8987 52.2484 40.496C51.7534 39.5658 51.1804 38.6861 50.6599 37.7731C50.0654 36.73 49.5031 35.6695 48.9113 34.625C48.3195 33.5805 47.7008 32.5905 47.1358 31.55C45.9952 29.4357 44.8882 27.3055 43.761 25.1846C43.6077 24.8976 43.4181 24.6637 43.0361 24.6185C42.806 24.5906 42.5949 24.4192 42.3743 24.3155C41.3924 23.8557 40.4132 23.3853 39.4259 22.9388C38.9511 22.7222 39.2793 22.4165 39.321 22.1507C39.3627 21.885 39.5617 21.8358 39.8106 21.9089C41.1382 22.2982 42.4711 22.673 43.7933 23.077C44.0109 23.1467 44.1997 23.2843 44.3314 23.469C45.4962 25.2564 46.9906 26.7607 48.4526 28.2955C50.0708 30.0058 51.6795 31.7334 53.3003 33.445C54.4185 34.6294 55.5394 35.8117 56.6629 36.9918C56.7975 37.1246 56.8782 37.316 57.0261 37.4197C57.7753 37.9379 57.9233 38.625 57.8022 39.4954C57.6422 40.6276 57.6677 41.7864 57.5076 42.9199C57.3597 44.0109 57.0893 45.0847 56.8714 46.1664C56.2957 49.0222 55.5681 51.8381 54.7193 54.6274C53.9298 57.2334 53.2397 59.8686 52.3816 62.4519C51.8328 64.1104 51.0728 65.701 50.4017 67.3183C49.5489 69.3745 48.6934 71.4294 47.8353 73.483C47.8141 73.5277 47.8022 73.5761 47.8004 73.6255C47.7985 73.6748 47.8067 73.7239 47.8245 73.7701C47.9348 73.6093 48.0505 73.4498 48.154 73.285C49.5798 71.01 51.006 68.7309 52.4327 66.4479C53.0756 65.418 53.7684 64.412 54.3158 63.3343C54.8794 62.2327 55.3031 61.0592 55.7765 59.9137C56.2366 58.8041 56.7181 57.7038 57.1216 56.5742C57.8681 54.4959 58.6012 52.4108 59.2737 50.3085C59.8279 48.5934 60.3314 46.8614 60.7842 45.1126C61.0909 43.9591 61.259 42.7631 61.4743 41.5791C61.7433 40.096 61.9908 38.6077 62.2719 37.126C62.3445 36.7446 62.2719 36.4948 61.9329 36.2755C59.7351 34.8469 57.7713 33.126 55.7779 31.4397C54.3548 30.233 52.9788 28.9679 51.5127 27.8158C50.0936 26.7009 49.1185 25.2311 48.0155 23.8584C47.382 23.0743 46.7162 22.3155 46.0396 21.566C45.9347 21.4491 45.7033 21.4119 45.5258 21.3986C44.5519 21.3242 43.5741 21.3029 42.6043 21.1993C41.6547 21.0983 40.7118 20.9242 39.7675 20.7727C39.6863 20.7644 39.6078 20.7391 39.5373 20.6986C39.4667 20.6581 39.4056 20.6032 39.358 20.5377C39.3105 20.4721 39.2776 20.3973 39.2614 20.3183C39.2453 20.2392 39.2463 20.1576 39.2645 20.079C39.2847 19.9979 39.4528 19.9076 39.5604 19.8983C40.1146 19.8478 40.6701 19.8212 41.2269 19.7893C42.4281 19.7202 43.6292 19.6431 44.8317 19.5953C45.0679 19.581 45.3027 19.639 45.5043 19.7614C46.5104 20.4737 47.4963 21.2139 48.4849 21.9487L53.8787 25.9607C55.6945 27.3099 57.5068 28.6583 59.3154 30.0058L62.9875 32.7406C63.0816 32.8111 63.1811 32.8735 63.3426 32.9785C63.3883 32.7832 63.434 32.6503 63.4502 32.5147C63.6358 30.9746 63.8954 29.4384 63.9734 27.8929C64.0501 26.4058 63.9398 24.9082 63.9088 23.4158C63.9088 23.3215 63.8833 23.2271 63.8846 23.1341C63.929 21.4292 63.4004 19.8119 63.1273 18.1534C62.8906 16.7169 62.2517 15.4 61.6572 14.0964C61.2348 13.1768 60.5327 12.3847 59.9503 11.5343C59.7741 11.2765 59.5817 11.0306 59.3961 10.7781L59.2993 10.8326C59.6477 11.8 59.9543 12.7701 60.3552 13.7043C60.8932 14.9429 61.0882 16.2531 61.3545 17.5581C61.5822 18.6954 61.6805 19.8543 61.6478 21.0132C61.5993 23.1687 61.559 25.3241 61.5133 27.4796C61.4975 27.6754 61.4706 27.8702 61.4326 28.063C61.1151 27.8729 60.799 27.7108 60.5125 27.5088C59.3948 26.7208 58.2878 25.9142 57.1727 25.1235C55.5954 24.0019 54.0154 22.883 52.4327 21.7667C50.3353 20.2783 48.2406 18.7878 46.1485 17.295C46.0468 17.2097 45.924 17.1525 45.7927 17.1292C45.6614 17.1058 45.5261 17.1172 45.4007 17.1621C43.4037 17.769 41.4018 18.3647 39.395 18.9495C39.1717 19.0146 38.9175 19.1873 38.7009 18.8764C38.5086 18.6013 38.487 18.4272 38.8233 18.2398C39.8065 17.695 40.7737 17.1209 41.7488 16.5601C42.724 15.9993 43.7247 15.4319 44.708 14.8565C44.8045 14.7849 44.9227 14.748 45.0433 14.7519C45.1639 14.7558 45.2795 14.8002 45.3711 14.8777C46.2279 15.4731 47.1009 16.0418 47.9644 16.6279C49.7991 17.8735 51.6324 19.1204 53.4644 20.3687C54.5324 21.0969 55.595 21.8305 56.6603 22.564C56.7786 22.6451 56.9077 22.7115 57.1001 22.8298C57.1379 22.6584 57.1604 22.4841 57.1673 22.3089C57.0705 20.9388 56.9763 19.5674 56.8593 18.2C56.7046 16.3887 56.246 14.6306 55.6864 12.919C55.1713 11.3416 54.5593 9.75089 53.7051 8.33563C52.6544 6.61739 51.3629 5.05464 49.869 3.69382C49.5435 3.39615 49.1803 3.13835 48.8346 2.86327L48.875 2.75961C48.8713 2.86232 48.8859 2.96486 48.918 3.0626C49.8125 4.6679 50.6841 6.28382 51.6257 7.85855C52.5296 9.36817 53.0622 11.0187 53.6433 12.6558C53.7231 12.9404 53.7713 13.2327 53.7872 13.5276C53.9002 14.5309 54.0024 15.5342 54.1073 16.5388C54.1039 16.6076 54.0931 16.6757 54.075 16.7422C53.9584 16.7005 53.8439 16.6531 53.732 16.6L45.8203 12.2678C45.3697 12.0206 44.9111 11.7867 44.4632 11.5356C44.2681 11.4266 44.1511 11.4386 43.9857 11.6233C43.071 12.6505 42.1725 13.6964 41.1947 14.6611C40.3715 15.4731 39.4461 16.1867 38.565 16.9362C38.4088 17.0383 38.2441 17.1272 38.0728 17.202C38.1804 16.782 38.2409 16.4578 38.3418 16.1508C38.4241 15.9425 38.4407 15.7145 38.3893 15.4968C38.3379 15.279 38.221 15.0817 38.0539 14.9309C37.2106 14.0738 36.3591 13.2219 35.5104 12.3701C35.48 12.3442 35.4436 12.326 35.4045 12.3169C35.3654 12.3079 35.3247 12.3084 35.2858 12.3183C35.3813 12.5336 35.4781 12.7502 35.5736 12.9668C35.9274 13.7734 36.2461 14.5934 36.1601 15.4917C36.1214 15.7671 36.0301 16.0327 35.8911 16.2744C35.8439 16.3293 35.7837 16.3719 35.7159 16.3983C35.6481 16.4248 35.5747 16.4342 35.5023 16.4259C34.5187 16.2044 33.4972 16.2044 32.5136 16.4259C32.4414 16.4291 32.3694 16.416 32.3032 16.3874C32.237 16.3588 32.1782 16.3156 32.1316 16.2611C31.7361 15.7402 31.7751 15.1329 31.9271 14.5548C32.0872 13.9475 32.3414 13.3588 32.5566 12.7688C32.6091 12.6226 32.6683 12.4804 32.7248 12.3356L32.6414 12.2718C32.5351 12.3595 32.4221 12.4406 32.3239 12.5376C31.681 13.1582 31.0246 13.7655 30.4072 14.41C30.1199 14.7148 29.8751 15.0562 29.6795 15.4252C29.5921 15.586 29.6419 15.8399 29.6795 16.0432C29.7441 16.394 29.8477 16.7382 29.9351 17.085L29.8396 17.1634C29.4522 16.8976 29.0258 16.6877 28.6855 16.3781C27.557 15.3482 26.4393 14.3037 25.3578 13.2259C24.8723 12.7422 24.4728 12.1708 24.0531 11.6313C23.9078 11.4426 23.7841 11.4107 23.5823 11.5263C22.2157 12.2744 20.8438 13.008 19.4758 13.7535C17.7775 14.6811 16.0804 15.6113 14.3848 16.5442C14.2533 16.6068 14.1186 16.6627 13.9812 16.7116C13.9812 16.4458 13.9637 16.2478 13.9812 16.0472C14.0606 15.2498 14.1763 14.4525 14.2341 13.6432C14.3148 12.5017 14.7533 11.4598 15.1945 10.4419C15.8038 9.03728 16.5396 7.68846 17.2578 6.33033C17.8214 5.25526 18.4267 4.20411 19.0064 3.141C19.0569 3.03392 19.1017 2.92437 19.1409 2.81277C19.0668 2.83769 18.9959 2.87115 18.9297 2.91244C17.2121 4.56823 15.6195 6.329 14.3135 8.3343C13.5906 9.45861 13.0343 10.6794 12.6617 11.9595C12.2501 13.3389 11.8143 14.7183 11.5251 16.1256C11.2413 17.4956 11.1082 18.8963 10.9521 20.289C10.8768 20.9694 10.8943 21.6604 10.8768 22.3474C10.8833 22.5006 10.8995 22.6533 10.9252 22.8046C11.0639 22.7466 11.1987 22.68 11.3288 22.6052C13.9911 20.7864 16.6516 18.9658 19.3104 17.1435C20.4403 16.3741 21.5836 15.6246 22.7134 14.8538C22.7961 14.7859 22.8993 14.7472 23.0068 14.7439C23.1142 14.7405 23.2197 14.7726 23.3066 14.8352C25.2744 15.9741 27.2476 17.105 29.2141 18.2465C29.3554 18.3289 29.6177 18.3887 29.4643 18.6598C29.3419 18.883 29.2424 19.1249 28.8873 19.0159C27.4615 18.5729 26.0339 18.1415 24.6046 17.7216C23.8796 17.5049 23.1519 17.2976 22.4188 17.1076C22.2877 17.092 22.1555 17.1262 22.049 17.2033C21.4343 17.6219 20.8276 18.0511 20.225 18.4843C18.9782 19.38 17.7394 20.2863 16.4884 21.1767C15.5644 21.8411 14.6215 22.471 13.6947 23.1261C11.3557 24.778 9.01928 26.4364 6.60488 28.1467C6.57394 27.8317 6.53224 27.5792 6.52686 27.3241C6.48651 25.4362 6.45065 23.5478 6.41926 21.6591C6.40984 21.1209 6.39908 20.5813 6.41926 20.0431C6.47575 18.2279 6.82278 16.4551 7.32853 14.7276C7.59754 13.8106 8.01316 12.9402 8.34808 12.0419C8.49997 11.6353 8.60993 11.2145 8.67628 10.7861C8.57137 10.919 8.45838 11.0346 8.36422 11.1688C7.78585 12.0007 7.14021 12.7967 6.6533 13.6778C6.14286 14.5815 5.72947 15.5355 5.41987 16.5242C5.01635 17.8744 4.73927 19.2657 4.44335 20.6438C4.01427 22.6451 4.0479 24.6929 4.00217 26.7195C3.97258 28.0404 4.25235 29.3693 4.39627 30.6942C4.46084 31.2975 4.52988 31.9003 4.60341 32.5028C4.61955 32.6357 4.65857 32.7792 4.7043 32.9985C5.09167 32.7207 5.41987 32.4921 5.74134 32.2543C8.14363 30.4691 10.5455 28.6836 12.9469 26.8975C14.8739 25.4552 16.8014 24.0107 18.7293 22.564C19.9991 21.6161 21.2733 20.6748 22.552 19.7401C22.7042 19.6329 22.887 19.5762 23.0739 19.578C24.809 19.6631 26.5442 19.7667 28.2793 19.869C28.4501 19.8783 28.6196 19.9156 28.7851 19.9395C28.7474 20.6557 28.6869 20.7116 28.0507 20.8046C27.1239 20.9375 26.2039 21.1235 25.2744 21.2245C24.4001 21.3202 23.5164 21.3574 22.6354 21.3773C22.4679 21.3745 22.3023 21.4119 22.1528 21.4865C22.0033 21.5611 21.8744 21.6704 21.7772 21.8052C20.4577 23.4331 19.1557 25.077 17.7743 26.6517C17.1314 27.3866 16.3351 27.9925 15.5859 28.6291C13.3988 30.4895 11.2158 32.35 8.99506 34.1732C8.06562 34.936 7.0622 35.6097 6.07357 36.2994C5.76825 36.5134 5.69561 36.7446 5.75748 37.0874C6.161 39.3465 6.56453 41.6057 6.96804 43.8568C7.32314 45.8076 7.95398 47.688 8.54446 49.571C9.22776 51.753 9.99579 53.9125 10.78 56.0626C11.4081 57.7795 12.1519 59.4367 12.7639 61.1469C13.3316 62.7416 14.1695 64.1609 15.0802 65.5682C16.2396 67.3568 17.3412 69.1841 18.4643 70.9967C18.9741 71.8179 19.4758 72.6432 19.9843 73.4657C20.0576 73.5994 20.1695 73.7086 20.3057 73.7794C20.2832 73.6894 20.2559 73.6007 20.2237 73.5136C19.2983 71.2864 18.3823 69.0538 17.4381 66.8346C16.4346 64.4771 15.4312 62.1263 14.8111 59.6267C14.3969 57.9536 13.8588 56.3045 13.3692 54.6567C12.9657 53.2879 12.503 51.9324 12.1506 50.5491C11.7565 49.0102 11.5171 47.4302 11.1028 45.898C10.4666 43.5445 10.4128 41.1299 10.2029 38.7299C10.1852 38.5913 10.2003 38.4505 10.247 38.3186C10.2937 38.1867 10.3707 38.0673 10.4719 37.9698C11.4902 36.9067 12.4896 35.8263 13.501 34.7552C15.2792 32.87 17.0579 30.9852 18.8369 29.1008C19.6386 28.2477 20.4658 27.4278 21.2271 26.5507C22.0234 25.6377 22.7874 24.6902 23.5137 23.7202C23.7808 23.3341 24.181 23.0572 24.6396 22.9414C25.8017 22.6252 26.9585 22.2863 28.1139 21.9487C28.3896 21.869 28.6263 21.78 28.7514 22.1747C28.9411 22.7647 28.9505 22.7806 28.4918 22.9946C27.2745 23.5607 26.0532 24.1188 24.848 24.7062C24.6226 24.8195 24.4355 24.9955 24.31 25.2125C23.3496 26.9812 22.4269 28.7673 21.4652 30.536C20.6877 31.973 19.8959 33.4007 19.0898 34.819C18.0944 36.5838 17.0843 38.3379 16.0782 40.096C15.9424 40.3573 15.7887 40.609 15.6182 40.8495C15.3492 41.1884 15.3828 41.5352 15.4837 41.9126C15.8711 43.401 16.2436 44.892 16.6203 46.383C17.1771 48.5903 17.7272 50.8002 18.2949 53.0049C18.6002 54.1929 18.9351 55.3729 19.2606 56.5556C19.7233 58.2354 20.147 59.9244 20.6608 61.5881C21.3979 63.9695 22.2373 66.3203 22.9609 68.707C23.4223 70.2286 24.1446 71.6306 24.8292 73.0445C25.6721 74.7933 26.5141 76.5421 27.3552 78.2909C27.5826 78.764 27.7897 79.2464 28.0184 79.7182C28.0984 79.8644 28.1882 80.0051 28.2874 80.1394L28.3923 80.0982C28.3371 79.8604 28.2901 79.6225 28.2255 79.3873C27.5772 77.0528 26.9262 74.7176 26.2725 72.3814C25.8689 70.9409 25.4345 69.5083 25.0458 68.0638C24.5777 66.3247 24.1293 64.5799 23.7007 62.8293C23.1788 60.7097 22.665 58.5875 22.1902 56.4507C21.7302 54.3856 21.3186 52.3098 20.8962 50.2368C20.5156 48.3763 20.1497 46.5159 19.7731 44.6488C19.7112 44.3392 19.613 44.0362 19.5592 43.7252C19.4678 43.2043 19.3803 42.7206 19.6292 42.1664C20.3367 40.5917 20.95 38.9771 21.5916 37.3731C22.4202 35.3081 23.2326 33.239 24.0666 31.1765C24.6705 29.6802 25.2865 28.1892 25.9281 26.7088C26.0613 26.421 26.2658 26.171 26.5227 25.9819C27.3297 25.3866 28.1717 24.8404 28.9882 24.261C29.2276 24.0909 29.3742 24.0776 29.5356 24.3514C29.7629 24.7354 30.0144 25.1049 30.2781 25.465C30.4368 25.6803 30.4126 25.8304 30.2377 26.0244C29.2814 27.0876 28.3425 28.1693 27.3862 29.2324C27.2852 29.3374 27.21 29.4639 27.1661 29.6021C27.1223 29.7403 27.1111 29.8866 27.1333 30.0297C27.3808 32.3765 27.5839 34.7273 27.8516 37.0728C27.9565 37.9937 28.173 38.904 28.3708 39.813C28.6828 41.2469 28.9801 42.686 29.3607 44.1013C29.8477 45.9113 30.6359 47.5883 31.8572 49.0421C32.1854 49.4328 32.2096 49.462 32.5862 49.1232C33.0812 48.6767 33.6448 48.4375 34.2971 48.577C34.673 48.6657 35.0279 48.8254 35.3423 49.0474C35.8803 49.4142 35.9852 49.4368 36.3847 48.884C37.1917 47.7757 37.9033 46.6142 38.2866 45.296C38.6955 43.8856 39.0744 42.4681 39.4232 41.0435C39.6801 39.999 39.9182 38.9452 40.0809 37.8834C40.2666 36.6715 40.3661 35.4463 40.4925 34.225C40.6378 32.8177 40.7615 31.4078 40.9176 30.0018C40.9399 29.8708 40.9311 29.7365 40.8919 29.6094C40.8527 29.4823 40.7841 29.366 40.6916 29.2696C39.7501 28.2145 38.8193 27.1434 37.867 26.0882C37.6437 25.8424 37.6195 25.6577 37.8226 25.3919C38.0849 25.049 38.3135 24.6796 38.5408 24.3128C38.6753 24.1029 38.8004 24.0816 39.0022 24.2225C39.9357 24.8736 40.9041 25.4783 41.7972 26.1799C42.0797 26.4019 42.1873 26.8603 42.3353 27.2258C43.3826 29.7498 44.4224 32.2711 45.4545 34.7898C46.3759 37.0489 47.2542 39.324 48.1998 41.5671C48.6033 42.5266 48.567 43.4448 48.3343 44.4349C47.9402 46.1544 47.6483 47.89 47.2986 49.6268C46.9031 51.5962 46.5157 53.567 46.0813 55.5284C45.5729 57.8168 45.0523 60.1038 44.4739 62.3762C43.7718 65.1403 43.0105 67.8911 42.26 70.6445C41.7502 72.5156 41.2162 74.38 40.6943 76.2471C40.367 77.4139 40.0433 78.5815 39.7232 79.7501C39.6962 79.8444 39.6895 79.9441 39.672 80.0411L39.7662 80.0836Z" fill="url(#paint0_radial_328_48)" shape-rendering="crispEdges"/>
<path d="M39.7662 80.0836C40.0056 79.6092 40.2598 79.1414 40.4845 78.659C41.0709 77.4006 41.6385 76.1342 42.233 74.8744C43.1194 72.9794 44.0758 71.1163 44.8869 69.1907C45.4558 67.8406 45.8526 66.416 46.2871 65.0127C46.9932 62.7336 47.7061 60.4546 48.345 58.1583C49.2462 54.9238 50.0936 51.676 50.9437 48.4268C51.5127 46.2368 52.0063 44.0282 52.5995 41.8449C52.7569 41.2668 52.465 40.8987 52.2484 40.496C51.7534 39.5658 51.1804 38.6861 50.6599 37.7731C50.0654 36.73 49.5031 35.6695 48.9113 34.625C48.3195 33.5805 47.7008 32.5905 47.1358 31.55C45.9952 29.4357 44.8882 27.3055 43.761 25.1846C43.6077 24.8976 43.4181 24.6637 43.0361 24.6185C42.806 24.5906 42.5949 24.4192 42.3743 24.3155C41.3924 23.8557 40.4132 23.3853 39.4259 22.9388C38.9511 22.7222 39.2793 22.4165 39.321 22.1507C39.3627 21.885 39.5617 21.8358 39.8106 21.9089C41.1382 22.2982 42.4711 22.673 43.7933 23.077C44.0109 23.1467 44.1997 23.2843 44.3314 23.469C45.4962 25.2564 46.9906 26.7607 48.4526 28.2955C50.0708 30.0058 51.6795 31.7334 53.3003 33.445C54.4185 34.6294 55.5394 35.8117 56.6629 36.9918C56.7975 37.1246 56.8782 37.316 57.0261 37.4197C57.7753 37.9379 57.9233 38.625 57.8022 39.4954C57.6422 40.6276 57.6677 41.7864 57.5076 42.9199C57.3597 44.0109 57.0893 45.0847 56.8714 46.1664C56.2957 49.0222 55.5681 51.8381 54.7193 54.6274C53.9298 57.2334 53.2397 59.8686 52.3816 62.4519C51.8328 64.1104 51.0728 65.701 50.4017 67.3183C49.5489 69.3745 48.6934 71.4294 47.8353 73.483C47.8141 73.5277 47.8022 73.5761 47.8004 73.6255C47.7985 73.6748 47.8067 73.7239 47.8245 73.7701C47.9348 73.6093 48.0505 73.4498 48.154 73.285C49.5798 71.01 51.006 68.7309 52.4327 66.4479C53.0756 65.418 53.7684 64.412 54.3158 63.3343C54.8794 62.2327 55.3031 61.0592 55.7765 59.9137C56.2366 58.8041 56.7181 57.7038 57.1216 56.5742C57.8681 54.4959 58.6012 52.4108 59.2737 50.3085C59.8279 48.5934 60.3314 46.8614 60.7842 45.1126C61.0909 43.9591 61.259 42.7631 61.4743 41.5791C61.7433 40.096 61.9908 38.6077 62.2719 37.126C62.3445 36.7446 62.2719 36.4948 61.9329 36.2755C59.7351 34.8469 57.7713 33.126 55.7779 31.4397C54.3548 30.233 52.9788 28.9679 51.5127 27.8158C50.0936 26.7009 49.1185 25.2311 48.0155 23.8584C47.382 23.0743 46.7162 22.3155 46.0396 21.566C45.9347 21.4491 45.7033 21.4119 45.5258 21.3986C44.5519 21.3242 43.5741 21.3029 42.6043 21.1993C41.6547 21.0983 40.7118 20.9242 39.7675 20.7727C39.6863 20.7644 39.6078 20.7391 39.5373 20.6986C39.4667 20.6581 39.4056 20.6032 39.358 20.5377C39.3105 20.4721 39.2776 20.3973 39.2614 20.3183C39.2453 20.2392 39.2463 20.1576 39.2645 20.079C39.2847 19.9979 39.4528 19.9076 39.5604 19.8983C40.1146 19.8478 40.6701 19.8212 41.2269 19.7893C42.4281 19.7202 43.6292 19.6431 44.8317 19.5953C45.0679 19.581 45.3027 19.639 45.5043 19.7614C46.5104 20.4737 47.4963 21.2139 48.4849 21.9487L53.8787 25.9607C55.6945 27.3099 57.5068 28.6583 59.3154 30.0058L62.9875 32.7406C63.0816 32.8111 63.1811 32.8735 63.3426 32.9785C63.3883 32.7832 63.434 32.6503 63.4502 32.5147C63.6358 30.9746 63.8954 29.4384 63.9734 27.8929C64.0501 26.4058 63.9398 24.9082 63.9088 23.4158C63.9088 23.3215 63.8833 23.2271 63.8846 23.1341C63.929 21.4292 63.4004 19.8119 63.1273 18.1534C62.8906 16.7169 62.2517 15.4 61.6572 14.0964C61.2348 13.1768 60.5327 12.3847 59.9503 11.5343C59.7741 11.2765 59.5817 11.0306 59.3961 10.7781L59.2993 10.8326C59.6477 11.8 59.9543 12.7701 60.3552 13.7043C60.8932 14.9429 61.0882 16.2531 61.3545 17.5581C61.5822 18.6954 61.6805 19.8543 61.6478 21.0132C61.5993 23.1687 61.559 25.3241 61.5133 27.4796C61.4975 27.6754 61.4706 27.8702 61.4326 28.063C61.1151 27.8729 60.799 27.7108 60.5125 27.5088C59.3948 26.7208 58.2878 25.9142 57.1727 25.1235C55.5954 24.0019 54.0154 22.883 52.4327 21.7667C50.3353 20.2783 48.2406 18.7878 46.1485 17.295C46.0468 17.2097 45.924 17.1525 45.7927 17.1292C45.6614 17.1058 45.5261 17.1172 45.4007 17.1621C43.4037 17.769 41.4018 18.3647 39.395 18.9495C39.1717 19.0146 38.9175 19.1873 38.7009 18.8764C38.5086 18.6013 38.487 18.4272 38.8233 18.2398C39.8065 17.695 40.7737 17.1209 41.7488 16.5601C42.724 15.9993 43.7247 15.4319 44.708 14.8565C44.8045 14.7849 44.9227 14.748 45.0433 14.7519C45.1639 14.7558 45.2795 14.8002 45.3711 14.8777C46.2279 15.4731 47.1009 16.0418 47.9644 16.6279C49.7991 17.8735 51.6324 19.1204 53.4644 20.3687C54.5324 21.0969 55.595 21.8305 56.6603 22.564C56.7786 22.6451 56.9077 22.7115 57.1001 22.8298C57.1379 22.6584 57.1604 22.4841 57.1673 22.3089C57.0705 20.9388 56.9763 19.5674 56.8593 18.2C56.7046 16.3887 56.246 14.6306 55.6864 12.919C55.1713 11.3416 54.5593 9.75089 53.7051 8.33563C52.6544 6.61739 51.3629 5.05464 49.869 3.69382C49.5435 3.39615 49.1803 3.13835 48.8346 2.86327L48.875 2.75961C48.8713 2.86232 48.8859 2.96486 48.918 3.0626C49.8125 4.6679 50.6841 6.28382 51.6257 7.85855C52.5296 9.36817 53.0622 11.0187 53.6433 12.6558C53.7231 12.9404 53.7713 13.2327 53.7872 13.5276C53.9002 14.5309 54.0024 15.5342 54.1073 16.5388C54.1039 16.6076 54.0931 16.6757 54.075 16.7422C53.9584 16.7005 53.8439 16.6531 53.732 16.6L45.8203 12.2678C45.3697 12.0206 44.9111 11.7867 44.4632 11.5356C44.2681 11.4266 44.1511 11.4386 43.9857 11.6233C43.071 12.6505 42.1725 13.6964 41.1947 14.6611C40.3715 15.4731 39.4461 16.1867 38.565 16.9362C38.4088 17.0383 38.2441 17.1272 38.0728 17.202C38.1804 16.782 38.2409 16.4578 38.3418 16.1508C38.4241 15.9425 38.4407 15.7145 38.3893 15.4968C38.3379 15.279 38.221 15.0817 38.0539 14.9309C37.2106 14.0738 36.3591 13.2219 35.5104 12.3701C35.48 12.3442 35.4436 12.326 35.4045 12.3169C35.3654 12.3079 35.3247 12.3084 35.2858 12.3183C35.3813 12.5336 35.4781 12.7502 35.5736 12.9668C35.9274 13.7734 36.2461 14.5934 36.1601 15.4917C36.1214 15.7671 36.0301 16.0327 35.8911 16.2744C35.8439 16.3293 35.7837 16.3719 35.7159 16.3983C35.6481 16.4248 35.5747 16.4342 35.5023 16.4259C34.5187 16.2044 33.4972 16.2044 32.5136 16.4259C32.4414 16.4291 32.3694 16.416 32.3032 16.3874C32.237 16.3588 32.1782 16.3156 32.1316 16.2611C31.7361 15.7402 31.7751 15.1329 31.9271 14.5548C32.0872 13.9475 32.3414 13.3588 32.5566 12.7688C32.6091 12.6226 32.6683 12.4804 32.7248 12.3356L32.6414 12.2718C32.5351 12.3595 32.4221 12.4406 32.3239 12.5376C31.681 13.1582 31.0246 13.7655 30.4072 14.41C30.1199 14.7148 29.8751 15.0562 29.6795 15.4252C29.5921 15.586 29.6419 15.8399 29.6795 16.0432C29.7441 16.394 29.8477 16.7382 29.9351 17.085L29.8396 17.1634C29.4522 16.8976 29.0258 16.6877 28.6855 16.3781C27.557 15.3482 26.4393 14.3037 25.3578 13.2259C24.8723 12.7422 24.4728 12.1708 24.0531 11.6313C23.9078 11.4426 23.7841 11.4107 23.5823 11.5263C22.2157 12.2744 20.8438 13.008 19.4758 13.7535C17.7775 14.6811 16.0804 15.6113 14.3848 16.5442C14.2533 16.6068 14.1186 16.6627 13.9812 16.7116C13.9812 16.4458 13.9637 16.2478 13.9812 16.0472C14.0606 15.2498 14.1763 14.4525 14.2341 13.6432C14.3148 12.5017 14.7533 11.4598 15.1945 10.4419C15.8038 9.03728 16.5396 7.68846 17.2578 6.33033C17.8214 5.25526 18.4267 4.20411 19.0064 3.141C19.0569 3.03392 19.1017 2.92437 19.1409 2.81277C19.0668 2.83769 18.9959 2.87115 18.9297 2.91244C17.2121 4.56823 15.6195 6.329 14.3135 8.3343C13.5906 9.45861 13.0343 10.6794 12.6617 11.9595C12.2501 13.3389 11.8143 14.7183 11.5251 16.1256C11.2413 17.4956 11.1082 18.8963 10.9521 20.289C10.8768 20.9694 10.8943 21.6604 10.8768 22.3474C10.8833 22.5006 10.8995 22.6533 10.9252 22.8046C11.0639 22.7466 11.1987 22.68 11.3288 22.6052C13.9911 20.7864 16.6516 18.9658 19.3104 17.1435C20.4403 16.3741 21.5836 15.6246 22.7134 14.8538C22.7961 14.7859 22.8993 14.7472 23.0068 14.7439C23.1142 14.7405 23.2197 14.7726 23.3066 14.8352C25.2744 15.9741 27.2476 17.105 29.2141 18.2465C29.3554 18.3289 29.6177 18.3887 29.4643 18.6598C29.3419 18.883 29.2424 19.1249 28.8873 19.0159C27.4615 18.5729 26.0339 18.1415 24.6046 17.7216C23.8796 17.5049 23.1519 17.2976 22.4188 17.1076C22.2877 17.092 22.1555 17.1262 22.049 17.2033C21.4343 17.6219 20.8276 18.0511 20.225 18.4843C18.9782 19.38 17.7394 20.2863 16.4884 21.1767C15.5644 21.8411 14.6215 22.471 13.6947 23.1261C11.3557 24.778 9.01928 26.4364 6.60488 28.1467C6.57394 27.8317 6.53224 27.5792 6.52686 27.3241C6.48651 25.4362 6.45065 23.5478 6.41926 21.6591C6.40984 21.1209 6.39908 20.5813 6.41926 20.0431C6.47575 18.2279 6.82278 16.4551 7.32853 14.7276C7.59754 13.8106 8.01316 12.9402 8.34808 12.0419C8.49997 11.6353 8.60993 11.2145 8.67628 10.7861C8.57137 10.919 8.45838 11.0346 8.36422 11.1688C7.78585 12.0007 7.14021 12.7967 6.6533 13.6778C6.14286 14.5815 5.72947 15.5355 5.41987 16.5242C5.01635 17.8744 4.73927 19.2657 4.44335 20.6438C4.01427 22.6451 4.0479 24.6929 4.00217 26.7195C3.97258 28.0404 4.25235 29.3693 4.39627 30.6942C4.46084 31.2975 4.52988 31.9003 4.60341 32.5028C4.61955 32.6357 4.65857 32.7792 4.7043 32.9985C5.09167 32.7207 5.41987 32.4921 5.74134 32.2543C8.14363 30.4691 10.5455 28.6836 12.9469 26.8975C14.8739 25.4552 16.8014 24.0107 18.7293 22.564C19.9991 21.6161 21.2733 20.6748 22.552 19.7401C22.7042 19.6329 22.887 19.5762 23.0739 19.578C24.809 19.6631 26.5442 19.7667 28.2793 19.869C28.4501 19.8783 28.6196 19.9156 28.7851 19.9395C28.7474 20.6557 28.6869 20.7116 28.0507 20.8046C27.1239 20.9375 26.2039 21.1235 25.2744 21.2245C24.4001 21.3202 23.5164 21.3574 22.6354 21.3773C22.4679 21.3745 22.3023 21.4119 22.1528 21.4865C22.0033 21.5611 21.8744 21.6704 21.7772 21.8052C20.4577 23.4331 19.1557 25.077 17.7743 26.6517C17.1314 27.3866 16.3351 27.9925 15.5859 28.6291C13.3988 30.4895 11.2158 32.35 8.99506 34.1732C8.06562 34.936 7.0622 35.6097 6.07357 36.2994C5.76825 36.5134 5.69561 36.7446 5.75748 37.0874C6.161 39.3465 6.56453 41.6057 6.96804 43.8568C7.32314 45.8076 7.95398 47.688 8.54446 49.571C9.22776 51.753 9.99579 53.9125 10.78 56.0626C11.4081 57.7795 12.1519 59.4367 12.7639 61.1469C13.3316 62.7416 14.1695 64.1609 15.0802 65.5682C16.2396 67.3568 17.3412 69.1841 18.4643 70.9967C18.9741 71.8179 19.4758 72.6432 19.9843 73.4657C20.0576 73.5994 20.1695 73.7086 20.3057 73.7794C20.2832 73.6894 20.2559 73.6007 20.2237 73.5136C19.2983 71.2864 18.3823 69.0538 17.4381 66.8346C16.4346 64.4771 15.4312 62.1263 14.8111 59.6267C14.3969 57.9536 13.8588 56.3045 13.3692 54.6567C12.9657 53.2879 12.503 51.9324 12.1506 50.5491C11.7565 49.0102 11.5171 47.4302 11.1028 45.898C10.4666 43.5445 10.4128 41.1299 10.2029 38.7299C10.1852 38.5913 10.2003 38.4505 10.247 38.3186C10.2937 38.1867 10.3707 38.0673 10.4719 37.9698C11.4902 36.9067 12.4896 35.8263 13.501 34.7552C15.2792 32.87 17.0579 30.9852 18.8369 29.1008C19.6386 28.2477 20.4658 27.4278 21.2271 26.5507C22.0234 25.6377 22.7874 24.6902 23.5137 23.7202C23.7808 23.3341 24.181 23.0572 24.6396 22.9414C25.8017 22.6252 26.9585 22.2863 28.1139 21.9487C28.3896 21.869 28.6263 21.78 28.7514 22.1747C28.9411 22.7647 28.9505 22.7806 28.4918 22.9946C27.2745 23.5607 26.0532 24.1188 24.848 24.7062C24.6226 24.8195 24.4355 24.9955 24.31 25.2125C23.3496 26.9812 22.4269 28.7673 21.4652 30.536C20.6877 31.973 19.8959 33.4007 19.0898 34.819C18.0944 36.5838 17.0843 38.3379 16.0782 40.096C15.9424 40.3573 15.7887 40.609 15.6182 40.8495C15.3492 41.1884 15.3828 41.5352 15.4837 41.9126C15.8711 43.401 16.2436 44.892 16.6203 46.383C17.1771 48.5903 17.7272 50.8002 18.2949 53.0049C18.6002 54.1929 18.9351 55.3729 19.2606 56.5556C19.7233 58.2354 20.147 59.9244 20.6608 61.5881C21.3979 63.9695 22.2373 66.3203 22.9609 68.707C23.4223 70.2286 24.1446 71.6306 24.8292 73.0445C25.6721 74.7933 26.5141 76.5421 27.3552 78.2909C27.5826 78.764 27.7897 79.2464 28.0184 79.7182C28.0984 79.8644 28.1882 80.0051 28.2874 80.1394L28.3923 80.0982C28.3371 79.8604 28.2901 79.6225 28.2255 79.3873C27.5772 77.0528 26.9262 74.7176 26.2725 72.3814C25.8689 70.9409 25.4345 69.5083 25.0458 68.0638C24.5777 66.3247 24.1293 64.5799 23.7007 62.8293C23.1788 60.7097 22.665 58.5875 22.1902 56.4507C21.7302 54.3856 21.3186 52.3098 20.8962 50.2368C20.5156 48.3763 20.1497 46.5159 19.7731 44.6488C19.7112 44.3392 19.613 44.0362 19.5592 43.7252C19.4678 43.2043 19.3803 42.7206 19.6292 42.1664C20.3367 40.5917 20.95 38.9771 21.5916 37.3731C22.4202 35.3081 23.2326 33.239 24.0666 31.1765C24.6705 29.6802 25.2865 28.1892 25.9281 26.7088C26.0613 26.421 26.2658 26.171 26.5227 25.9819C27.3297 25.3866 28.1717 24.8404 28.9882 24.261C29.2276 24.0909 29.3742 24.0776 29.5356 24.3514C29.7629 24.7354 30.0144 25.1049 30.2781 25.465C30.4368 25.6803 30.4126 25.8304 30.2377 26.0244C29.2814 27.0876 28.3425 28.1693 27.3862 29.2324C27.2852 29.3374 27.21 29.4639 27.1661 29.6021C27.1223 29.7403 27.1111 29.8866 27.1333 30.0297C27.3808 32.3765 27.5839 34.7273 27.8516 37.0728C27.9565 37.9937 28.173 38.904 28.3708 39.813C28.6828 41.2469 28.9801 42.686 29.3607 44.1013C29.8477 45.9113 30.6359 47.5883 31.8572 49.0421C32.1854 49.4328 32.2096 49.462 32.5862 49.1232C33.0812 48.6767 33.6448 48.4375 34.2971 48.577C34.673 48.6657 35.0279 48.8254 35.3423 49.0474C35.8803 49.4142 35.9852 49.4368 36.3847 48.884C37.1917 47.7757 37.9033 46.6142 38.2866 45.296C38.6955 43.8856 39.0744 42.4681 39.4232 41.0435C39.6801 39.999 39.9182 38.9452 40.0809 37.8834C40.2666 36.6715 40.3661 35.4463 40.4925 34.225C40.6378 32.8177 40.7615 31.4078 40.9176 30.0018C40.9399 29.8708 40.9311 29.7365 40.8919 29.6094C40.8527 29.4823 40.7841 29.366 40.6916 29.2696C39.7501 28.2145 38.8193 27.1434 37.867 26.0882C37.6437 25.8424 37.6195 25.6577 37.8226 25.3919C38.0849 25.049 38.3135 24.6796 38.5408 24.3128C38.6753 24.1029 38.8004 24.0816 39.0022 24.2225C39.9357 24.8736 40.9041 25.4783 41.7972 26.1799C42.0797 26.4019 42.1873 26.8603 42.3353 27.2258C43.3826 29.7498 44.4224 32.2711 45.4545 34.7898C46.3759 37.0489 47.2542 39.324 48.1998 41.5671C48.6033 42.5266 48.567 43.4448 48.3343 44.4349C47.9402 46.1544 47.6483 47.89 47.2986 49.6268C46.9031 51.5962 46.5157 53.567 46.0813 55.5284C45.5729 57.8168 45.0523 60.1038 44.4739 62.3762C43.7718 65.1403 43.0105 67.8911 42.26 70.6445C41.7502 72.5156 41.2162 74.38 40.6943 76.2471C40.367 77.4139 40.0433 78.5815 39.7232 79.7501C39.6962 79.8444 39.6895 79.9441 39.672 80.0411L39.7662 80.0836Z" stroke="#ECECEC" stroke-width="0.8" shape-rendering="crispEdges" mask="url(#path-1-inside-1_328_48)"/>
</g>
<defs>
<filter id="filter0_di_328_48" x="-3.8147e-06" y="0.759613" width="68" height="85.3798" filterUnits="userSpaceOnUse" color-interpolation-filters="sRGB">
<feFlood flood-opacity="0" result="BackgroundImageFix"/>
<feColorMatrix in="SourceAlpha" type="matrix" values="0 0 0 0 0 0 0 0 0 0 0 0 0 0 0 0 0 0 127 0" result="hardAlpha"/>
<feOffset dy="2"/>
<feGaussianBlur stdDeviation="2"/>
<feComposite in2="hardAlpha" operator="out"/>
<feColorMatrix type="matrix" values="0 0 0 0 0.92549 0 0 0 0 0.92549 0 0 0 0 0.92549 0 0 0 0.32 0"/>
<feBlend mode="normal" in2="BackgroundImageFix" result="effect1_dropShadow_328_48"/>
<feBlend mode="normal" in="SourceGraphic" in2="effect1_dropShadow_328_48" result="shape"/>
<feColorMatrix in="SourceAlpha" type="matrix" values="0 0 0 0 0 0 0 0 0 0 0 0 0 0 0 0 0 0 127 0" result="hardAlpha"/>
<feOffset dy="70"/>
<feGaussianBlur stdDeviation="2"/>
<feComposite in2="hardAlpha" operator="arithmetic" k2="-1" k3="1"/>
<feColorMatrix type="matrix" values="0 0 0 0 0.0705882 0 0 0 0 0.0705882 0 0 0 0 0.0705882 0 0 0 0.24 0"/>
<feBlend mode="normal" in2="shape" result="effect2_innerShadow_328_48"/>
</filter>
<radialGradient id="paint0_radial_328_48" cx="0" cy="0" r="1" gradientUnits="userSpaceOnUse" gradientTransform="translate(34 16.7596) rotate(90) scale(63 30)">
<stop offset="0.995649" stop-color="#C3161A"/>
<stop offset="1" stop-color="#ECECEC" stop-opacity="0.2"/>
</radialGradient>
</defs>
</svg>
