<svg width="73" height="90" viewBox="0 0 73 90" fill="none" xmlns="http://www.w3.org/2000/svg">
<g id="Vector" filter="url(#filter0_d_503_19)">
<mask id="path-1-inside-1_503_19" fill="white">
<path d="M30.7338 81.6341C30.4944 81.1597 30.2402 80.6919 30.0155 80.2095C29.4291 78.9511 28.8615 77.6846 28.267 76.4248C27.3806 74.5298 26.4242 72.6667 25.6131 70.7412C25.0442 69.391 24.6474 67.9665 24.2129 66.5632C23.5068 64.2841 22.7939 62.0051 22.155 59.7088C21.2538 56.4742 20.4064 53.2264 19.5563 49.9773C18.9873 47.7873 18.4937 45.5787 17.9005 43.3953C17.7431 42.8173 18.035 42.4492 18.2516 42.0465C18.7466 41.1163 19.3196 40.2366 19.8401 39.3236C20.4346 38.2804 20.9969 37.22 21.5887 36.1755C22.1805 35.131 22.7992 34.141 23.3642 33.1004C24.5048 30.9862 25.6118 28.856 26.739 26.7351C26.8923 26.448 27.0819 26.2141 27.4639 26.169C27.694 26.1411 27.9051 25.9696 28.1257 25.866C29.1076 25.4062 30.0868 24.9358 31.0741 24.4892C31.5489 24.2726 31.2207 23.967 31.179 23.7012C31.1373 23.4354 30.9383 23.3863 30.6894 23.4594C29.3618 23.8487 28.0289 24.2235 26.7067 24.6275C26.4891 24.6972 26.3003 24.8347 26.1686 25.0195C25.0038 26.8068 23.5094 28.3111 22.0474 29.846C20.4292 31.5563 18.8205 33.2838 17.1997 34.9954C16.0815 36.1799 14.9606 37.3622 13.8371 38.5422C13.7025 38.6751 13.6218 38.8665 13.4739 38.9701C12.7247 39.4884 12.5767 40.1754 12.6978 41.0459C12.8578 42.1781 12.8323 43.3369 12.9924 44.4704C13.1403 45.5614 13.4107 46.6352 13.6286 47.7169C14.2043 50.5727 14.9319 53.3886 15.7807 56.1779C16.5702 58.7839 17.2603 61.419 18.1184 64.0024C18.6672 65.6608 19.4272 67.2515 20.0983 68.8688C20.9511 70.925 21.8066 72.9799 22.6647 75.0335C22.6859 75.0782 22.6978 75.1266 22.6996 75.1759C22.7015 75.2252 22.6933 75.2744 22.6755 75.3205C22.5652 75.1597 22.4495 75.0003 22.346 74.8355C20.9202 72.5604 19.494 70.2814 18.0673 67.9984C17.4244 66.9685 16.7316 65.9625 16.1842 64.8848C15.6206 63.7831 15.1969 62.6097 14.7235 61.4642C14.2634 60.3546 13.7819 59.2543 13.3784 58.1247C12.6319 56.0463 11.8988 53.9613 11.2263 51.859C10.6721 50.1439 10.1686 48.4119 9.71576 46.6631C9.40909 45.5096 9.24096 44.3136 9.02574 43.1296C8.75673 41.6465 8.50924 40.1582 8.22812 38.6764C8.15549 38.2951 8.22812 38.0452 8.56708 37.826C10.7649 36.3974 12.7287 34.6765 14.7221 32.9901C16.1452 31.7835 17.5212 30.5184 18.9873 29.3663C20.4064 28.2513 21.3815 26.7816 22.4845 25.4088C23.118 24.6248 23.7838 23.866 24.4604 23.1165C24.5653 22.9996 24.7967 22.9624 24.9742 22.9491C25.9481 22.8746 26.9259 22.8534 27.8957 22.7497C28.8453 22.6487 29.7882 22.4747 30.7325 22.3232C30.8137 22.3148 30.8922 22.2896 30.9627 22.2491C31.0333 22.2086 31.0944 22.1537 31.142 22.0881C31.1895 22.0226 31.2224 21.9478 31.2386 21.8687C31.2547 21.7897 31.2537 21.7081 31.2355 21.6295C31.2153 21.5484 31.0472 21.4581 30.9396 21.4488C30.3854 21.3983 29.8299 21.3717 29.2731 21.3398C28.0719 21.2707 26.8708 21.1936 25.6683 21.1458C25.4321 21.1315 25.1973 21.1895 24.9957 21.3119C23.9896 22.0242 23.0037 22.7644 22.0151 23.4992L16.6213 27.5111C14.8055 28.8604 12.9932 30.2088 11.1846 31.5563L7.51254 34.2911C7.41839 34.3616 7.31885 34.424 7.15744 34.529C7.11171 34.3336 7.06598 34.2008 7.04984 34.0652C6.86422 32.525 6.60462 30.9888 6.52661 29.4433C6.44994 27.9563 6.56023 26.4587 6.59117 24.9663C6.59117 24.872 6.61673 24.7776 6.61538 24.6846C6.57099 22.9796 7.09961 21.3624 7.37266 19.7039C7.60939 18.2674 8.2483 16.9505 8.84282 15.6468C9.26517 14.7272 9.96729 13.9352 10.5497 13.0847C10.7259 12.8269 10.9183 12.5811 11.1039 12.3286L11.2007 12.3831C10.8523 13.3505 10.5457 14.3206 10.1448 15.2548C9.60681 16.4933 9.41178 17.8036 9.14546 19.1086C8.91782 20.2459 8.81947 21.4048 8.85223 22.5637C8.90065 24.7191 8.94101 26.8746 8.98674 29.0301C9.00247 29.2259 9.02941 29.4206 9.06744 29.6134C9.38488 29.4234 9.70097 29.2613 9.98747 29.0593C11.1052 28.2713 12.2122 27.4646 13.3273 26.6739C14.9046 25.5524 16.4846 24.4334 18.0673 23.3172C20.1647 21.8288 22.2594 20.3382 24.3515 18.8455C24.4532 18.7602 24.576 18.703 24.7073 18.6796C24.8386 18.6563 24.9739 18.6677 25.0993 18.7126C27.0963 19.3194 29.0982 19.9152 31.105 20.4999C31.3283 20.565 31.5825 20.7378 31.7991 20.4268C31.9914 20.1518 32.013 19.9777 31.6767 19.7903C30.6935 19.2455 29.7263 18.6714 28.7512 18.1106C27.776 17.5498 26.7753 16.9824 25.792 16.407C25.6955 16.3354 25.5773 16.2985 25.4567 16.3024C25.3361 16.3062 25.2205 16.3506 25.1289 16.4282C24.2721 17.0236 23.3991 17.5923 22.5356 18.1784C20.7009 19.424 18.8676 20.6709 17.0356 21.9192C15.9676 22.6474 14.905 23.381 13.8397 24.1145C13.7214 24.1956 13.5923 24.262 13.3999 24.3803C13.3621 24.2089 13.3396 24.0346 13.3327 23.8594C13.4295 22.4893 13.5237 21.1179 13.6407 19.7504C13.7954 17.9392 14.254 16.181 14.8136 14.4694C15.3287 12.892 15.9407 11.3014 16.7949 9.8861C17.8456 8.16787 19.1371 6.60512 20.631 5.2443C20.9565 4.94663 21.3197 4.68882 21.6654 4.41374L21.625 4.31009C21.6287 4.41279 21.6141 4.51534 21.582 4.61308C20.6875 6.21837 19.8159 7.8343 18.8743 9.40903C17.9704 10.9186 17.4378 12.5691 16.8567 14.2063C16.7769 14.4909 16.7287 14.7832 16.7128 15.0781C16.5998 16.0814 16.4976 17.0847 16.3927 18.0893C16.3961 18.158 16.4069 18.2262 16.425 18.2926C16.5416 18.251 16.6561 18.2035 16.768 18.1505L24.6797 13.8183C25.1303 13.5711 25.5889 13.3372 26.0368 13.0861C26.2319 12.9771 26.3489 12.9891 26.5143 13.1738C27.429 14.201 28.3275 15.2468 29.3053 16.2116C30.1285 17.0236 31.0539 17.7372 31.935 18.4867C32.0912 18.5888 32.2559 18.6777 32.4272 18.7524C32.3196 18.3325 32.2591 18.0083 32.1582 17.7013C32.0759 17.493 32.0593 17.265 32.1107 17.0472C32.1621 16.8295 32.279 16.6322 32.4461 16.4814C33.2894 15.6242 34.1409 14.7724 34.9896 13.9206C35.02 13.8947 35.0564 13.8764 35.0955 13.8674C35.1346 13.8584 35.1753 13.8589 35.2142 13.8688C35.1187 14.0841 35.0219 14.3007 34.9264 14.5173C34.5726 15.3239 34.2539 16.1438 34.3399 17.0422C34.3786 17.3176 34.4699 17.5832 34.6089 17.8249C34.6561 17.8798 34.7163 17.9224 34.7841 17.9488C34.8519 17.9752 34.9253 17.9847 34.9977 17.9764C35.9813 17.7549 37.0028 17.7549 37.9864 17.9764C38.0586 17.9796 38.1306 17.9665 38.1968 17.9379C38.263 17.9093 38.3218 17.8661 38.3684 17.8116C38.7639 17.2907 38.7249 16.6834 38.5729 16.1053C38.4128 15.498 38.1586 14.9093 37.9434 14.3193C37.8909 14.1731 37.8317 14.0309 37.7752 13.8861L37.8586 13.8223C37.9649 13.91 38.0779 13.991 38.1761 14.088C38.819 14.7086 39.4754 15.3159 40.0928 15.9604C40.3801 16.2653 40.6249 16.6067 40.8205 16.9757C40.9079 17.1365 40.8581 17.3903 40.8205 17.5936C40.7559 17.9445 40.6523 18.2887 40.5649 18.6355L40.6604 18.7139C41.0478 18.4481 41.4742 18.2382 41.8145 17.9285C42.943 16.8986 44.0607 15.8541 45.1422 14.7764C45.6277 14.2927 46.0272 13.7213 46.4469 13.1817C46.5922 12.993 46.7159 12.9611 46.9177 13.0768C48.2843 13.8249 49.6562 14.5585 51.0242 15.304C52.7225 16.2315 54.4196 17.1618 56.1152 18.0946C56.2467 18.1573 56.3814 18.2132 56.5188 18.2621C56.5188 17.9963 56.5363 17.7983 56.5188 17.5976C56.4394 16.8003 56.3237 16.003 56.2659 15.1937C56.1852 14.0522 55.7467 13.0103 55.3055 11.9924C54.6962 10.5878 53.9604 9.23893 53.2422 7.88081C52.6786 6.80574 52.0733 5.75459 51.4936 4.69148C51.4431 4.5844 51.3983 4.47484 51.3591 4.36324C51.4332 4.38817 51.5041 4.42162 51.5703 4.46291C53.2879 6.11871 54.8805 7.87948 56.1865 9.88477C56.9094 11.0091 57.4657 12.2299 57.8383 13.51C58.2499 14.8894 58.6857 16.2687 58.9749 17.676C59.2587 19.0461 59.3918 20.4468 59.5479 21.8394C59.6232 22.5198 59.6057 23.2109 59.6232 23.8979C59.6167 24.0511 59.6005 24.2038 59.5748 24.355C59.4361 24.2971 59.3013 24.2305 59.1712 24.1557C56.5089 22.3369 53.8484 20.5163 51.1896 18.694C50.0597 17.9245 48.9164 17.1751 47.7866 16.4043C47.7039 16.3364 47.6007 16.2977 47.4932 16.2943C47.3858 16.291 47.2803 16.3231 47.1934 16.3857C45.2256 17.5245 43.2524 18.6554 41.2859 19.7969C41.1446 19.8793 40.8823 19.9391 41.0357 20.2102C41.1581 20.4335 41.2576 20.6753 41.6127 20.5664C43.0385 20.1234 44.4661 19.692 45.8954 19.272C46.6204 19.0554 47.3481 18.8481 48.0812 18.6581C48.2123 18.6425 48.3445 18.6767 48.451 18.7538C49.0657 19.1724 49.6724 19.6016 50.275 20.0348C51.5218 20.9305 52.7606 21.8368 54.0116 22.7271C54.9356 23.3916 55.8785 24.0215 56.8053 24.6766C59.1443 26.3284 61.4807 27.9869 63.8951 29.6972C63.9261 29.3822 63.9678 29.1297 63.9731 28.8746C64.0135 26.9867 64.0494 25.0983 64.0807 23.2095C64.0902 22.6713 64.1009 22.1318 64.0807 21.5936C64.0243 19.7783 63.6772 18.0056 63.1715 16.2781C62.9025 15.3611 62.4868 14.4907 62.1519 13.5924C62 13.1857 61.8901 12.765 61.8237 12.3366C61.9286 12.4695 62.0416 12.5851 62.1358 12.7193C62.7142 13.5512 63.3598 14.3472 63.8467 15.2282C64.3571 16.132 64.7705 17.086 65.0801 18.0747C65.4836 19.4249 65.7607 20.8162 66.0566 22.1943C66.4857 24.1956 66.4521 26.2434 66.4978 28.2699C66.5274 29.5908 66.2476 30.9197 66.1037 32.2446C66.0392 32.8479 65.9701 33.4508 65.8966 34.0533C65.8804 34.1861 65.8414 34.3297 65.7957 34.5489C65.4083 34.2712 65.0801 34.0426 64.7587 33.8048C62.3564 32.0196 59.9545 30.234 57.5531 28.448C55.6261 27.0057 53.6986 25.5612 51.7707 24.1145C50.5009 23.1666 49.2267 22.2253 47.948 21.2906C47.7958 21.1834 47.613 21.1266 47.4261 21.1285C45.691 21.2135 43.9558 21.3172 42.2207 21.4195C42.0499 21.4288 41.8804 21.466 41.7149 21.4899C41.7526 22.2062 41.8131 22.262 42.4493 22.3551C43.3761 22.4879 44.2961 22.674 45.2256 22.775C46.0999 22.8707 46.9836 22.9079 47.8646 22.9278C48.0321 22.925 48.1977 22.9624 48.3472 23.037C48.4967 23.1115 48.6256 23.2209 48.7228 23.3557C50.0423 24.9836 51.3443 26.6274 52.7257 28.2022C53.3686 28.937 54.1649 29.543 54.9141 30.1795C57.1012 32.04 59.2842 33.9004 61.5049 35.7237C62.4344 36.4864 63.4378 37.1602 64.4264 37.8499C64.7318 38.0638 64.8044 38.2951 64.7425 38.6379C64.339 40.897 63.9355 43.1561 63.532 45.4073C63.1769 47.3581 62.546 49.2385 61.9555 51.1215C61.2722 53.3035 60.5042 55.463 59.72 57.6131C59.0919 59.33 58.3481 60.9871 57.7361 62.6974C57.1684 64.2921 56.3305 65.7113 55.4198 67.1186C54.2604 68.9073 53.1588 70.7346 52.0357 72.5471C51.5259 73.3684 51.0242 74.1936 50.5157 75.0162C50.4424 75.1499 50.3305 75.259 50.1943 75.3298C50.2168 75.2399 50.2441 75.1511 50.2763 75.0641C51.2017 72.8368 52.1177 70.6043 53.0619 68.3851C54.0654 66.0276 55.0688 63.6768 55.6889 61.1772C56.1031 59.5041 56.6412 57.855 57.1308 56.2071C57.5343 54.8384 57.997 53.4829 58.3494 52.0995C58.7435 50.5607 58.9829 48.9806 59.3972 47.4484C60.0334 45.095 60.0872 42.6804 60.2971 40.2804C60.3148 40.1418 60.2997 40.001 60.253 39.8691C60.2063 39.7372 60.1293 39.6178 60.0281 39.5203C59.0098 38.4572 58.0104 37.3768 56.999 36.3057C55.2208 34.4205 53.4421 32.5357 51.6631 30.6513C50.8614 29.7982 50.0342 28.9782 49.2729 28.1012C48.4766 27.1882 47.7126 26.2407 46.9863 25.2706C46.7192 24.8845 46.319 24.6077 45.8604 24.4919C44.6983 24.1756 43.5415 23.8368 42.3861 23.4992C42.1104 23.4195 41.8737 23.3305 41.7486 23.7251C41.5589 24.3152 41.5495 24.3311 42.0082 24.5451C43.2255 25.1112 44.4468 25.6693 45.652 26.2567C45.8774 26.37 46.0645 26.546 46.19 26.763C47.1504 28.5317 48.0731 30.3177 49.0348 32.0865C49.8123 33.5235 50.6041 34.9511 51.4102 36.3695C52.4056 38.1343 53.4157 39.8884 54.4218 41.6465C54.5576 41.9077 54.7113 42.1595 54.8818 42.4C55.1508 42.7389 55.1172 43.0857 55.0163 43.4631C54.6289 44.9515 54.2564 46.4425 53.8797 47.9335C53.3229 50.1408 52.7728 52.3507 52.2051 54.5553C51.8998 55.7434 51.5649 56.9234 51.2394 58.1061C50.7767 59.7858 50.353 61.4748 49.8392 63.1386C49.1021 65.52 48.2627 67.8708 47.5391 70.2575C47.0777 71.779 46.3554 73.181 45.6708 74.595C44.8279 76.3438 43.9859 78.0926 43.1448 79.8414C42.9174 80.3145 42.7103 80.7969 42.4816 81.2686C42.4016 81.4149 42.3118 81.5556 42.2126 81.6899L42.1077 81.6487C42.1629 81.4108 42.2099 81.173 42.2745 80.9377C42.9228 78.6033 43.5738 76.268 44.2275 73.9318C44.6311 72.4913 45.0655 71.0588 45.4542 69.6143C45.9223 67.8752 46.3707 66.1304 46.7993 64.3798C47.3212 62.2602 47.835 60.138 48.3098 58.0011C48.7698 55.936 49.1814 53.8603 49.6038 51.7873C49.9844 49.9268 50.3503 48.0664 50.7269 46.1993C50.7888 45.8897 50.887 45.5867 50.9408 45.2757C51.0322 44.7548 51.1197 44.2711 50.8708 43.7169C50.1633 42.1422 49.55 40.5276 48.9084 38.9236C48.0798 36.8585 47.2674 34.7895 46.4334 32.727C45.8295 31.2307 45.2135 29.7397 44.5719 28.2593C44.4387 27.9715 44.2342 27.7215 43.9773 27.5324C43.1703 26.9371 42.3283 26.3909 41.5118 25.8115C41.2724 25.6414 41.1258 25.6281 40.9644 25.9019C40.7371 26.2859 40.4856 26.6553 40.2219 27.0155C40.0632 27.2307 40.0874 27.3809 40.2623 27.5749C41.2186 28.638 42.1575 29.7197 43.1138 30.7829C43.2148 30.8879 43.29 31.0143 43.3339 31.1525C43.3777 31.2908 43.3889 31.437 43.3667 31.5802C43.1192 33.927 42.9161 36.2778 42.6484 38.6233C42.5435 39.5442 42.327 40.4545 42.1292 41.3635C41.8172 42.7973 41.5199 44.2365 41.1393 45.6518C40.6523 47.4617 39.8641 49.1388 38.6428 50.5926C38.3146 50.9833 38.2904 51.0125 37.9138 50.6736C37.4188 50.2271 36.8552 49.9879 36.2029 50.1275C35.827 50.2162 35.4721 50.3759 35.1577 50.5979C34.6197 50.9647 34.5148 50.9873 34.1153 50.4344C33.3083 49.3262 32.5967 48.1647 32.2134 46.8465C31.8045 45.4361 31.4256 44.0186 31.0768 42.594C30.8199 41.5495 30.5818 40.4957 30.4191 39.4339C30.2334 38.222 30.1339 36.9967 30.0075 35.7755C29.8622 34.3682 29.7385 32.9583 29.5824 31.5523C29.5601 31.4213 29.5689 31.2869 29.6081 31.1599C29.6473 31.0328 29.7159 30.9165 29.8084 30.8201C30.7499 29.7649 31.6807 28.6938 32.633 27.6387C32.8563 27.3929 32.8805 27.2082 32.6774 26.9424C32.4151 26.5995 32.1865 26.2301 31.9592 25.8633C31.8247 25.6534 31.6996 25.6321 31.4978 25.773C30.5643 26.4241 29.5959 27.0288 28.7028 27.7304C28.4203 27.9523 28.3127 28.4108 28.1647 28.7762C27.1174 31.3002 26.0776 33.8216 25.0455 36.3403C24.1241 38.5994 23.2458 40.8744 22.3002 43.1176C21.8967 44.0771 21.933 44.9953 22.1657 45.9853C22.5598 47.7049 22.8517 49.4404 23.2014 51.1773C23.5969 53.1467 23.9843 55.1175 24.4187 57.0789C24.9271 59.3672 25.4477 61.6543 26.0261 63.9266C26.7282 66.6907 27.4895 69.4415 28.24 72.195C28.7498 74.0661 29.2838 75.9305 29.8057 77.7976C30.133 78.9643 30.4567 80.132 30.7768 81.3005C30.8038 81.3949 30.8105 81.4945 30.828 81.5916L30.7338 81.6341Z"/>
</mask>
<path d="M30.7338 81.6341C30.4944 81.1597 30.2402 80.6919 30.0155 80.2095C29.4291 78.9511 28.8615 77.6846 28.267 76.4248C27.3806 74.5298 26.4242 72.6667 25.6131 70.7412C25.0442 69.391 24.6474 67.9665 24.2129 66.5632C23.5068 64.2841 22.7939 62.0051 22.155 59.7088C21.2538 56.4742 20.4064 53.2264 19.5563 49.9773C18.9873 47.7873 18.4937 45.5787 17.9005 43.3953C17.7431 42.8173 18.035 42.4492 18.2516 42.0465C18.7466 41.1163 19.3196 40.2366 19.8401 39.3236C20.4346 38.2804 20.9969 37.22 21.5887 36.1755C22.1805 35.131 22.7992 34.141 23.3642 33.1004C24.5048 30.9862 25.6118 28.856 26.739 26.7351C26.8923 26.448 27.0819 26.2141 27.4639 26.169C27.694 26.1411 27.9051 25.9696 28.1257 25.866C29.1076 25.4062 30.0868 24.9358 31.0741 24.4892C31.5489 24.2726 31.2207 23.967 31.179 23.7012C31.1373 23.4354 30.9383 23.3863 30.6894 23.4594C29.3618 23.8487 28.0289 24.2235 26.7067 24.6275C26.4891 24.6972 26.3003 24.8347 26.1686 25.0195C25.0038 26.8068 23.5094 28.3111 22.0474 29.846C20.4292 31.5563 18.8205 33.2838 17.1997 34.9954C16.0815 36.1799 14.9606 37.3622 13.8371 38.5422C13.7025 38.6751 13.6218 38.8665 13.4739 38.9701C12.7247 39.4884 12.5767 40.1754 12.6978 41.0459C12.8578 42.1781 12.8323 43.3369 12.9924 44.4704C13.1403 45.5614 13.4107 46.6352 13.6286 47.7169C14.2043 50.5727 14.9319 53.3886 15.7807 56.1779C16.5702 58.7839 17.2603 61.419 18.1184 64.0024C18.6672 65.6608 19.4272 67.2515 20.0983 68.8688C20.9511 70.925 21.8066 72.9799 22.6647 75.0335C22.6859 75.0782 22.6978 75.1266 22.6996 75.1759C22.7015 75.2252 22.6933 75.2744 22.6755 75.3205C22.5652 75.1597 22.4495 75.0003 22.346 74.8355C20.9202 72.5604 19.494 70.2814 18.0673 67.9984C17.4244 66.9685 16.7316 65.9625 16.1842 64.8848C15.6206 63.7831 15.1969 62.6097 14.7235 61.4642C14.2634 60.3546 13.7819 59.2543 13.3784 58.1247C12.6319 56.0463 11.8988 53.9613 11.2263 51.859C10.6721 50.1439 10.1686 48.4119 9.71576 46.6631C9.40909 45.5096 9.24096 44.3136 9.02574 43.1296C8.75673 41.6465 8.50924 40.1582 8.22812 38.6764C8.15549 38.2951 8.22812 38.0452 8.56708 37.826C10.7649 36.3974 12.7287 34.6765 14.7221 32.9901C16.1452 31.7835 17.5212 30.5184 18.9873 29.3663C20.4064 28.2513 21.3815 26.7816 22.4845 25.4088C23.118 24.6248 23.7838 23.866 24.4604 23.1165C24.5653 22.9996 24.7967 22.9624 24.9742 22.9491C25.9481 22.8746 26.9259 22.8534 27.8957 22.7497C28.8453 22.6487 29.7882 22.4747 30.7325 22.3232C30.8137 22.3148 30.8922 22.2896 30.9627 22.2491C31.0333 22.2086 31.0944 22.1537 31.142 22.0881C31.1895 22.0226 31.2224 21.9478 31.2386 21.8687C31.2547 21.7897 31.2537 21.7081 31.2355 21.6295C31.2153 21.5484 31.0472 21.4581 30.9396 21.4488C30.3854 21.3983 29.8299 21.3717 29.2731 21.3398C28.0719 21.2707 26.8708 21.1936 25.6683 21.1458C25.4321 21.1315 25.1973 21.1895 24.9957 21.3119C23.9896 22.0242 23.0037 22.7644 22.0151 23.4992L16.6213 27.5111C14.8055 28.8604 12.9932 30.2088 11.1846 31.5563L7.51254 34.2911C7.41839 34.3616 7.31885 34.424 7.15744 34.529C7.11171 34.3336 7.06598 34.2008 7.04984 34.0652C6.86422 32.525 6.60462 30.9888 6.52661 29.4433C6.44994 27.9563 6.56023 26.4587 6.59117 24.9663C6.59117 24.872 6.61673 24.7776 6.61538 24.6846C6.57099 22.9796 7.09961 21.3624 7.37266 19.7039C7.60939 18.2674 8.2483 16.9505 8.84282 15.6468C9.26517 14.7272 9.96729 13.9352 10.5497 13.0847C10.7259 12.8269 10.9183 12.5811 11.1039 12.3286L11.2007 12.3831C10.8523 13.3505 10.5457 14.3206 10.1448 15.2548C9.60681 16.4933 9.41178 17.8036 9.14546 19.1086C8.91782 20.2459 8.81947 21.4048 8.85223 22.5637C8.90065 24.7191 8.94101 26.8746 8.98674 29.0301C9.00247 29.2259 9.02941 29.4206 9.06744 29.6134C9.38488 29.4234 9.70097 29.2613 9.98747 29.0593C11.1052 28.2713 12.2122 27.4646 13.3273 26.6739C14.9046 25.5524 16.4846 24.4334 18.0673 23.3172C20.1647 21.8288 22.2594 20.3382 24.3515 18.8455C24.4532 18.7602 24.576 18.703 24.7073 18.6796C24.8386 18.6563 24.9739 18.6677 25.0993 18.7126C27.0963 19.3194 29.0982 19.9152 31.105 20.4999C31.3283 20.565 31.5825 20.7378 31.7991 20.4268C31.9914 20.1518 32.013 19.9777 31.6767 19.7903C30.6935 19.2455 29.7263 18.6714 28.7512 18.1106C27.776 17.5498 26.7753 16.9824 25.792 16.407C25.6955 16.3354 25.5773 16.2985 25.4567 16.3024C25.3361 16.3062 25.2205 16.3506 25.1289 16.4282C24.2721 17.0236 23.3991 17.5923 22.5356 18.1784C20.7009 19.424 18.8676 20.6709 17.0356 21.9192C15.9676 22.6474 14.905 23.381 13.8397 24.1145C13.7214 24.1956 13.5923 24.262 13.3999 24.3803C13.3621 24.2089 13.3396 24.0346 13.3327 23.8594C13.4295 22.4893 13.5237 21.1179 13.6407 19.7504C13.7954 17.9392 14.254 16.181 14.8136 14.4694C15.3287 12.892 15.9407 11.3014 16.7949 9.8861C17.8456 8.16787 19.1371 6.60512 20.631 5.2443C20.9565 4.94663 21.3197 4.68882 21.6654 4.41374L21.625 4.31009C21.6287 4.41279 21.6141 4.51534 21.582 4.61308C20.6875 6.21837 19.8159 7.8343 18.8743 9.40903C17.9704 10.9186 17.4378 12.5691 16.8567 14.2063C16.7769 14.4909 16.7287 14.7832 16.7128 15.0781C16.5998 16.0814 16.4976 17.0847 16.3927 18.0893C16.3961 18.158 16.4069 18.2262 16.425 18.2926C16.5416 18.251 16.6561 18.2035 16.768 18.1505L24.6797 13.8183C25.1303 13.5711 25.5889 13.3372 26.0368 13.0861C26.2319 12.9771 26.3489 12.9891 26.5143 13.1738C27.429 14.201 28.3275 15.2468 29.3053 16.2116C30.1285 17.0236 31.0539 17.7372 31.935 18.4867C32.0912 18.5888 32.2559 18.6777 32.4272 18.7524C32.3196 18.3325 32.2591 18.0083 32.1582 17.7013C32.0759 17.493 32.0593 17.265 32.1107 17.0472C32.1621 16.8295 32.279 16.6322 32.4461 16.4814C33.2894 15.6242 34.1409 14.7724 34.9896 13.9206C35.02 13.8947 35.0564 13.8764 35.0955 13.8674C35.1346 13.8584 35.1753 13.8589 35.2142 13.8688C35.1187 14.0841 35.0219 14.3007 34.9264 14.5173C34.5726 15.3239 34.2539 16.1438 34.3399 17.0422C34.3786 17.3176 34.4699 17.5832 34.6089 17.8249C34.6561 17.8798 34.7163 17.9224 34.7841 17.9488C34.8519 17.9752 34.9253 17.9847 34.9977 17.9764C35.9813 17.7549 37.0028 17.7549 37.9864 17.9764C38.0586 17.9796 38.1306 17.9665 38.1968 17.9379C38.263 17.9093 38.3218 17.8661 38.3684 17.8116C38.7639 17.2907 38.7249 16.6834 38.5729 16.1053C38.4128 15.498 38.1586 14.9093 37.9434 14.3193C37.8909 14.1731 37.8317 14.0309 37.7752 13.8861L37.8586 13.8223C37.9649 13.91 38.0779 13.991 38.1761 14.088C38.819 14.7086 39.4754 15.3159 40.0928 15.9604C40.3801 16.2653 40.6249 16.6067 40.8205 16.9757C40.9079 17.1365 40.8581 17.3903 40.8205 17.5936C40.7559 17.9445 40.6523 18.2887 40.5649 18.6355L40.6604 18.7139C41.0478 18.4481 41.4742 18.2382 41.8145 17.9285C42.943 16.8986 44.0607 15.8541 45.1422 14.7764C45.6277 14.2927 46.0272 13.7213 46.4469 13.1817C46.5922 12.993 46.7159 12.9611 46.9177 13.0768C48.2843 13.8249 49.6562 14.5585 51.0242 15.304C52.7225 16.2315 54.4196 17.1618 56.1152 18.0946C56.2467 18.1573 56.3814 18.2132 56.5188 18.2621C56.5188 17.9963 56.5363 17.7983 56.5188 17.5976C56.4394 16.8003 56.3237 16.003 56.2659 15.1937C56.1852 14.0522 55.7467 13.0103 55.3055 11.9924C54.6962 10.5878 53.9604 9.23893 53.2422 7.88081C52.6786 6.80574 52.0733 5.75459 51.4936 4.69148C51.4431 4.5844 51.3983 4.47484 51.3591 4.36324C51.4332 4.38817 51.5041 4.42162 51.5703 4.46291C53.2879 6.11871 54.8805 7.87948 56.1865 9.88477C56.9094 11.0091 57.4657 12.2299 57.8383 13.51C58.2499 14.8894 58.6857 16.2687 58.9749 17.676C59.2587 19.0461 59.3918 20.4468 59.5479 21.8394C59.6232 22.5198 59.6057 23.2109 59.6232 23.8979C59.6167 24.0511 59.6005 24.2038 59.5748 24.355C59.4361 24.2971 59.3013 24.2305 59.1712 24.1557C56.5089 22.3369 53.8484 20.5163 51.1896 18.694C50.0597 17.9245 48.9164 17.1751 47.7866 16.4043C47.7039 16.3364 47.6007 16.2977 47.4932 16.2943C47.3858 16.291 47.2803 16.3231 47.1934 16.3857C45.2256 17.5245 43.2524 18.6554 41.2859 19.7969C41.1446 19.8793 40.8823 19.9391 41.0357 20.2102C41.1581 20.4335 41.2576 20.6753 41.6127 20.5664C43.0385 20.1234 44.4661 19.692 45.8954 19.272C46.6204 19.0554 47.3481 18.8481 48.0812 18.6581C48.2123 18.6425 48.3445 18.6767 48.451 18.7538C49.0657 19.1724 49.6724 19.6016 50.275 20.0348C51.5218 20.9305 52.7606 21.8368 54.0116 22.7271C54.9356 23.3916 55.8785 24.0215 56.8053 24.6766C59.1443 26.3284 61.4807 27.9869 63.8951 29.6972C63.9261 29.3822 63.9678 29.1297 63.9731 28.8746C64.0135 26.9867 64.0494 25.0983 64.0807 23.2095C64.0902 22.6713 64.1009 22.1318 64.0807 21.5936C64.0243 19.7783 63.6772 18.0056 63.1715 16.2781C62.9025 15.3611 62.4868 14.4907 62.1519 13.5924C62 13.1857 61.8901 12.765 61.8237 12.3366C61.9286 12.4695 62.0416 12.5851 62.1358 12.7193C62.7142 13.5512 63.3598 14.3472 63.8467 15.2282C64.3571 16.132 64.7705 17.086 65.0801 18.0747C65.4836 19.4249 65.7607 20.8162 66.0566 22.1943C66.4857 24.1956 66.4521 26.2434 66.4978 28.2699C66.5274 29.5908 66.2476 30.9197 66.1037 32.2446C66.0392 32.8479 65.9701 33.4508 65.8966 34.0533C65.8804 34.1861 65.8414 34.3297 65.7957 34.5489C65.4083 34.2712 65.0801 34.0426 64.7587 33.8048C62.3564 32.0196 59.9545 30.234 57.5531 28.448C55.6261 27.0057 53.6986 25.5612 51.7707 24.1145C50.5009 23.1666 49.2267 22.2253 47.948 21.2906C47.7958 21.1834 47.613 21.1266 47.4261 21.1285C45.691 21.2135 43.9558 21.3172 42.2207 21.4195C42.0499 21.4288 41.8804 21.466 41.7149 21.4899C41.7526 22.2062 41.8131 22.262 42.4493 22.3551C43.3761 22.4879 44.2961 22.674 45.2256 22.775C46.0999 22.8707 46.9836 22.9079 47.8646 22.9278C48.0321 22.925 48.1977 22.9624 48.3472 23.037C48.4967 23.1115 48.6256 23.2209 48.7228 23.3557C50.0423 24.9836 51.3443 26.6274 52.7257 28.2022C53.3686 28.937 54.1649 29.543 54.9141 30.1795C57.1012 32.04 59.2842 33.9004 61.5049 35.7237C62.4344 36.4864 63.4378 37.1602 64.4264 37.8499C64.7318 38.0638 64.8044 38.2951 64.7425 38.6379C64.339 40.897 63.9355 43.1561 63.532 45.4073C63.1769 47.3581 62.546 49.2385 61.9555 51.1215C61.2722 53.3035 60.5042 55.463 59.72 57.6131C59.0919 59.33 58.3481 60.9871 57.7361 62.6974C57.1684 64.2921 56.3305 65.7113 55.4198 67.1186C54.2604 68.9073 53.1588 70.7346 52.0357 72.5471C51.5259 73.3684 51.0242 74.1936 50.5157 75.0162C50.4424 75.1499 50.3305 75.259 50.1943 75.3298C50.2168 75.2399 50.2441 75.1511 50.2763 75.0641C51.2017 72.8368 52.1177 70.6043 53.0619 68.3851C54.0654 66.0276 55.0688 63.6768 55.6889 61.1772C56.1031 59.5041 56.6412 57.855 57.1308 56.2071C57.5343 54.8384 57.997 53.4829 58.3494 52.0995C58.7435 50.5607 58.9829 48.9806 59.3972 47.4484C60.0334 45.095 60.0872 42.6804 60.2971 40.2804C60.3148 40.1418 60.2997 40.001 60.253 39.8691C60.2063 39.7372 60.1293 39.6178 60.0281 39.5203C59.0098 38.4572 58.0104 37.3768 56.999 36.3057C55.2208 34.4205 53.4421 32.5357 51.6631 30.6513C50.8614 29.7982 50.0342 28.9782 49.2729 28.1012C48.4766 27.1882 47.7126 26.2407 46.9863 25.2706C46.7192 24.8845 46.319 24.6077 45.8604 24.4919C44.6983 24.1756 43.5415 23.8368 42.3861 23.4992C42.1104 23.4195 41.8737 23.3305 41.7486 23.7251C41.5589 24.3152 41.5495 24.3311 42.0082 24.5451C43.2255 25.1112 44.4468 25.6693 45.652 26.2567C45.8774 26.37 46.0645 26.546 46.19 26.763C47.1504 28.5317 48.0731 30.3177 49.0348 32.0865C49.8123 33.5235 50.6041 34.9511 51.4102 36.3695C52.4056 38.1343 53.4157 39.8884 54.4218 41.6465C54.5576 41.9077 54.7113 42.1595 54.8818 42.4C55.1508 42.7389 55.1172 43.0857 55.0163 43.4631C54.6289 44.9515 54.2564 46.4425 53.8797 47.9335C53.3229 50.1408 52.7728 52.3507 52.2051 54.5553C51.8998 55.7434 51.5649 56.9234 51.2394 58.1061C50.7767 59.7858 50.353 61.4748 49.8392 63.1386C49.1021 65.52 48.2627 67.8708 47.5391 70.2575C47.0777 71.779 46.3554 73.181 45.6708 74.595C44.8279 76.3438 43.9859 78.0926 43.1448 79.8414C42.9174 80.3145 42.7103 80.7969 42.4816 81.2686C42.4016 81.4149 42.3118 81.5556 42.2126 81.6899L42.1077 81.6487C42.1629 81.4108 42.2099 81.173 42.2745 80.9377C42.9228 78.6033 43.5738 76.268 44.2275 73.9318C44.6311 72.4913 45.0655 71.0588 45.4542 69.6143C45.9223 67.8752 46.3707 66.1304 46.7993 64.3798C47.3212 62.2602 47.835 60.138 48.3098 58.0011C48.7698 55.936 49.1814 53.8603 49.6038 51.7873C49.9844 49.9268 50.3503 48.0664 50.7269 46.1993C50.7888 45.8897 50.887 45.5867 50.9408 45.2757C51.0322 44.7548 51.1197 44.2711 50.8708 43.7169C50.1633 42.1422 49.55 40.5276 48.9084 38.9236C48.0798 36.8585 47.2674 34.7895 46.4334 32.727C45.8295 31.2307 45.2135 29.7397 44.5719 28.2593C44.4387 27.9715 44.2342 27.7215 43.9773 27.5324C43.1703 26.9371 42.3283 26.3909 41.5118 25.8115C41.2724 25.6414 41.1258 25.6281 40.9644 25.9019C40.7371 26.2859 40.4856 26.6553 40.2219 27.0155C40.0632 27.2307 40.0874 27.3809 40.2623 27.5749C41.2186 28.638 42.1575 29.7197 43.1138 30.7829C43.2148 30.8879 43.29 31.0143 43.3339 31.1525C43.3777 31.2908 43.3889 31.437 43.3667 31.5802C43.1192 33.927 42.9161 36.2778 42.6484 38.6233C42.5435 39.5442 42.327 40.4545 42.1292 41.3635C41.8172 42.7973 41.5199 44.2365 41.1393 45.6518C40.6523 47.4617 39.8641 49.1388 38.6428 50.5926C38.3146 50.9833 38.2904 51.0125 37.9138 50.6736C37.4188 50.2271 36.8552 49.9879 36.2029 50.1275C35.827 50.2162 35.4721 50.3759 35.1577 50.5979C34.6197 50.9647 34.5148 50.9873 34.1153 50.4344C33.3083 49.3262 32.5967 48.1647 32.2134 46.8465C31.8045 45.4361 31.4256 44.0186 31.0768 42.594C30.8199 41.5495 30.5818 40.4957 30.4191 39.4339C30.2334 38.222 30.1339 36.9967 30.0075 35.7755C29.8622 34.3682 29.7385 32.9583 29.5824 31.5523C29.5601 31.4213 29.5689 31.2869 29.6081 31.1599C29.6473 31.0328 29.7159 30.9165 29.8084 30.8201C30.7499 29.7649 31.6807 28.6938 32.633 27.6387C32.8563 27.3929 32.8805 27.2082 32.6774 26.9424C32.4151 26.5995 32.1865 26.2301 31.9592 25.8633C31.8247 25.6534 31.6996 25.6321 31.4978 25.773C30.5643 26.4241 29.5959 27.0288 28.7028 27.7304C28.4203 27.9523 28.3127 28.4108 28.1647 28.7762C27.1174 31.3002 26.0776 33.8216 25.0455 36.3403C24.1241 38.5994 23.2458 40.8744 22.3002 43.1176C21.8967 44.0771 21.933 44.9953 22.1657 45.9853C22.5598 47.7049 22.8517 49.4404 23.2014 51.1773C23.5969 53.1467 23.9843 55.1175 24.4187 57.0789C24.9271 59.3672 25.4477 61.6543 26.0261 63.9266C26.7282 66.6907 27.4895 69.4415 28.24 72.195C28.7498 74.0661 29.2838 75.9305 29.8057 77.7976C30.133 78.9643 30.4567 80.132 30.7768 81.3005C30.8038 81.3949 30.8105 81.4945 30.828 81.5916L30.7338 81.6341Z" fill="url(#paint0_linear_503_19)"/>
<path d="M30.7338 81.6341C30.4944 81.1597 30.2402 80.6919 30.0155 80.2095C29.4291 78.9511 28.8615 77.6846 28.267 76.4248C27.3806 74.5298 26.4242 72.6667 25.6131 70.7412C25.0442 69.391 24.6474 67.9665 24.2129 66.5632C23.5068 64.2841 22.7939 62.0051 22.155 59.7088C21.2538 56.4742 20.4064 53.2264 19.5563 49.9773C18.9873 47.7873 18.4937 45.5787 17.9005 43.3953C17.7431 42.8173 18.035 42.4492 18.2516 42.0465C18.7466 41.1163 19.3196 40.2366 19.8401 39.3236C20.4346 38.2804 20.9969 37.22 21.5887 36.1755C22.1805 35.131 22.7992 34.141 23.3642 33.1004C24.5048 30.9862 25.6118 28.856 26.739 26.7351C26.8923 26.448 27.0819 26.2141 27.4639 26.169C27.694 26.1411 27.9051 25.9696 28.1257 25.866C29.1076 25.4062 30.0868 24.9358 31.0741 24.4892C31.5489 24.2726 31.2207 23.967 31.179 23.7012C31.1373 23.4354 30.9383 23.3863 30.6894 23.4594C29.3618 23.8487 28.0289 24.2235 26.7067 24.6275C26.4891 24.6972 26.3003 24.8347 26.1686 25.0195C25.0038 26.8068 23.5094 28.3111 22.0474 29.846C20.4292 31.5563 18.8205 33.2838 17.1997 34.9954C16.0815 36.1799 14.9606 37.3622 13.8371 38.5422C13.7025 38.6751 13.6218 38.8665 13.4739 38.9701C12.7247 39.4884 12.5767 40.1754 12.6978 41.0459C12.8578 42.1781 12.8323 43.3369 12.9924 44.4704C13.1403 45.5614 13.4107 46.6352 13.6286 47.7169C14.2043 50.5727 14.9319 53.3886 15.7807 56.1779C16.5702 58.7839 17.2603 61.419 18.1184 64.0024C18.6672 65.6608 19.4272 67.2515 20.0983 68.8688C20.9511 70.925 21.8066 72.9799 22.6647 75.0335C22.6859 75.0782 22.6978 75.1266 22.6996 75.1759C22.7015 75.2252 22.6933 75.2744 22.6755 75.3205C22.5652 75.1597 22.4495 75.0003 22.346 74.8355C20.9202 72.5604 19.494 70.2814 18.0673 67.9984C17.4244 66.9685 16.7316 65.9625 16.1842 64.8848C15.6206 63.7831 15.1969 62.6097 14.7235 61.4642C14.2634 60.3546 13.7819 59.2543 13.3784 58.1247C12.6319 56.0463 11.8988 53.9613 11.2263 51.859C10.6721 50.1439 10.1686 48.4119 9.71576 46.6631C9.40909 45.5096 9.24096 44.3136 9.02574 43.1296C8.75673 41.6465 8.50924 40.1582 8.22812 38.6764C8.15549 38.2951 8.22812 38.0452 8.56708 37.826C10.7649 36.3974 12.7287 34.6765 14.7221 32.9901C16.1452 31.7835 17.5212 30.5184 18.9873 29.3663C20.4064 28.2513 21.3815 26.7816 22.4845 25.4088C23.118 24.6248 23.7838 23.866 24.4604 23.1165C24.5653 22.9996 24.7967 22.9624 24.9742 22.9491C25.9481 22.8746 26.9259 22.8534 27.8957 22.7497C28.8453 22.6487 29.7882 22.4747 30.7325 22.3232C30.8137 22.3148 30.8922 22.2896 30.9627 22.2491C31.0333 22.2086 31.0944 22.1537 31.142 22.0881C31.1895 22.0226 31.2224 21.9478 31.2386 21.8687C31.2547 21.7897 31.2537 21.7081 31.2355 21.6295C31.2153 21.5484 31.0472 21.4581 30.9396 21.4488C30.3854 21.3983 29.8299 21.3717 29.2731 21.3398C28.0719 21.2707 26.8708 21.1936 25.6683 21.1458C25.4321 21.1315 25.1973 21.1895 24.9957 21.3119C23.9896 22.0242 23.0037 22.7644 22.0151 23.4992L16.6213 27.5111C14.8055 28.8604 12.9932 30.2088 11.1846 31.5563L7.51254 34.2911C7.41839 34.3616 7.31885 34.424 7.15744 34.529C7.11171 34.3336 7.06598 34.2008 7.04984 34.0652C6.86422 32.525 6.60462 30.9888 6.52661 29.4433C6.44994 27.9563 6.56023 26.4587 6.59117 24.9663C6.59117 24.872 6.61673 24.7776 6.61538 24.6846C6.57099 22.9796 7.09961 21.3624 7.37266 19.7039C7.60939 18.2674 8.2483 16.9505 8.84282 15.6468C9.26517 14.7272 9.96729 13.9352 10.5497 13.0847C10.7259 12.8269 10.9183 12.5811 11.1039 12.3286L11.2007 12.3831C10.8523 13.3505 10.5457 14.3206 10.1448 15.2548C9.60681 16.4933 9.41178 17.8036 9.14546 19.1086C8.91782 20.2459 8.81947 21.4048 8.85223 22.5637C8.90065 24.7191 8.94101 26.8746 8.98674 29.0301C9.00247 29.2259 9.02941 29.4206 9.06744 29.6134C9.38488 29.4234 9.70097 29.2613 9.98747 29.0593C11.1052 28.2713 12.2122 27.4646 13.3273 26.6739C14.9046 25.5524 16.4846 24.4334 18.0673 23.3172C20.1647 21.8288 22.2594 20.3382 24.3515 18.8455C24.4532 18.7602 24.576 18.703 24.7073 18.6796C24.8386 18.6563 24.9739 18.6677 25.0993 18.7126C27.0963 19.3194 29.0982 19.9152 31.105 20.4999C31.3283 20.565 31.5825 20.7378 31.7991 20.4268C31.9914 20.1518 32.013 19.9777 31.6767 19.7903C30.6935 19.2455 29.7263 18.6714 28.7512 18.1106C27.776 17.5498 26.7753 16.9824 25.792 16.407C25.6955 16.3354 25.5773 16.2985 25.4567 16.3024C25.3361 16.3062 25.2205 16.3506 25.1289 16.4282C24.2721 17.0236 23.3991 17.5923 22.5356 18.1784C20.7009 19.424 18.8676 20.6709 17.0356 21.9192C15.9676 22.6474 14.905 23.381 13.8397 24.1145C13.7214 24.1956 13.5923 24.262 13.3999 24.3803C13.3621 24.2089 13.3396 24.0346 13.3327 23.8594C13.4295 22.4893 13.5237 21.1179 13.6407 19.7504C13.7954 17.9392 14.254 16.181 14.8136 14.4694C15.3287 12.892 15.9407 11.3014 16.7949 9.8861C17.8456 8.16787 19.1371 6.60512 20.631 5.2443C20.9565 4.94663 21.3197 4.68882 21.6654 4.41374L21.625 4.31009C21.6287 4.41279 21.6141 4.51534 21.582 4.61308C20.6875 6.21837 19.8159 7.8343 18.8743 9.40903C17.9704 10.9186 17.4378 12.5691 16.8567 14.2063C16.7769 14.4909 16.7287 14.7832 16.7128 15.0781C16.5998 16.0814 16.4976 17.0847 16.3927 18.0893C16.3961 18.158 16.4069 18.2262 16.425 18.2926C16.5416 18.251 16.6561 18.2035 16.768 18.1505L24.6797 13.8183C25.1303 13.5711 25.5889 13.3372 26.0368 13.0861C26.2319 12.9771 26.3489 12.9891 26.5143 13.1738C27.429 14.201 28.3275 15.2468 29.3053 16.2116C30.1285 17.0236 31.0539 17.7372 31.935 18.4867C32.0912 18.5888 32.2559 18.6777 32.4272 18.7524C32.3196 18.3325 32.2591 18.0083 32.1582 17.7013C32.0759 17.493 32.0593 17.265 32.1107 17.0472C32.1621 16.8295 32.279 16.6322 32.4461 16.4814C33.2894 15.6242 34.1409 14.7724 34.9896 13.9206C35.02 13.8947 35.0564 13.8764 35.0955 13.8674C35.1346 13.8584 35.1753 13.8589 35.2142 13.8688C35.1187 14.0841 35.0219 14.3007 34.9264 14.5173C34.5726 15.3239 34.2539 16.1438 34.3399 17.0422C34.3786 17.3176 34.4699 17.5832 34.6089 17.8249C34.6561 17.8798 34.7163 17.9224 34.7841 17.9488C34.8519 17.9752 34.9253 17.9847 34.9977 17.9764C35.9813 17.7549 37.0028 17.7549 37.9864 17.9764C38.0586 17.9796 38.1306 17.9665 38.1968 17.9379C38.263 17.9093 38.3218 17.8661 38.3684 17.8116C38.7639 17.2907 38.7249 16.6834 38.5729 16.1053C38.4128 15.498 38.1586 14.9093 37.9434 14.3193C37.8909 14.1731 37.8317 14.0309 37.7752 13.8861L37.8586 13.8223C37.9649 13.91 38.0779 13.991 38.1761 14.088C38.819 14.7086 39.4754 15.3159 40.0928 15.9604C40.3801 16.2653 40.6249 16.6067 40.8205 16.9757C40.9079 17.1365 40.8581 17.3903 40.8205 17.5936C40.7559 17.9445 40.6523 18.2887 40.5649 18.6355L40.6604 18.7139C41.0478 18.4481 41.4742 18.2382 41.8145 17.9285C42.943 16.8986 44.0607 15.8541 45.1422 14.7764C45.6277 14.2927 46.0272 13.7213 46.4469 13.1817C46.5922 12.993 46.7159 12.9611 46.9177 13.0768C48.2843 13.8249 49.6562 14.5585 51.0242 15.304C52.7225 16.2315 54.4196 17.1618 56.1152 18.0946C56.2467 18.1573 56.3814 18.2132 56.5188 18.2621C56.5188 17.9963 56.5363 17.7983 56.5188 17.5976C56.4394 16.8003 56.3237 16.003 56.2659 15.1937C56.1852 14.0522 55.7467 13.0103 55.3055 11.9924C54.6962 10.5878 53.9604 9.23893 53.2422 7.88081C52.6786 6.80574 52.0733 5.75459 51.4936 4.69148C51.4431 4.5844 51.3983 4.47484 51.3591 4.36324C51.4332 4.38817 51.5041 4.42162 51.5703 4.46291C53.2879 6.11871 54.8805 7.87948 56.1865 9.88477C56.9094 11.0091 57.4657 12.2299 57.8383 13.51C58.2499 14.8894 58.6857 16.2687 58.9749 17.676C59.2587 19.0461 59.3918 20.4468 59.5479 21.8394C59.6232 22.5198 59.6057 23.2109 59.6232 23.8979C59.6167 24.0511 59.6005 24.2038 59.5748 24.355C59.4361 24.2971 59.3013 24.2305 59.1712 24.1557C56.5089 22.3369 53.8484 20.5163 51.1896 18.694C50.0597 17.9245 48.9164 17.1751 47.7866 16.4043C47.7039 16.3364 47.6007 16.2977 47.4932 16.2943C47.3858 16.291 47.2803 16.3231 47.1934 16.3857C45.2256 17.5245 43.2524 18.6554 41.2859 19.7969C41.1446 19.8793 40.8823 19.9391 41.0357 20.2102C41.1581 20.4335 41.2576 20.6753 41.6127 20.5664C43.0385 20.1234 44.4661 19.692 45.8954 19.272C46.6204 19.0554 47.3481 18.8481 48.0812 18.6581C48.2123 18.6425 48.3445 18.6767 48.451 18.7538C49.0657 19.1724 49.6724 19.6016 50.275 20.0348C51.5218 20.9305 52.7606 21.8368 54.0116 22.7271C54.9356 23.3916 55.8785 24.0215 56.8053 24.6766C59.1443 26.3284 61.4807 27.9869 63.8951 29.6972C63.9261 29.3822 63.9678 29.1297 63.9731 28.8746C64.0135 26.9867 64.0494 25.0983 64.0807 23.2095C64.0902 22.6713 64.1009 22.1318 64.0807 21.5936C64.0243 19.7783 63.6772 18.0056 63.1715 16.2781C62.9025 15.3611 62.4868 14.4907 62.1519 13.5924C62 13.1857 61.8901 12.765 61.8237 12.3366C61.9286 12.4695 62.0416 12.5851 62.1358 12.7193C62.7142 13.5512 63.3598 14.3472 63.8467 15.2282C64.3571 16.132 64.7705 17.086 65.0801 18.0747C65.4836 19.4249 65.7607 20.8162 66.0566 22.1943C66.4857 24.1956 66.4521 26.2434 66.4978 28.2699C66.5274 29.5908 66.2476 30.9197 66.1037 32.2446C66.0392 32.8479 65.9701 33.4508 65.8966 34.0533C65.8804 34.1861 65.8414 34.3297 65.7957 34.5489C65.4083 34.2712 65.0801 34.0426 64.7587 33.8048C62.3564 32.0196 59.9545 30.234 57.5531 28.448C55.6261 27.0057 53.6986 25.5612 51.7707 24.1145C50.5009 23.1666 49.2267 22.2253 47.948 21.2906C47.7958 21.1834 47.613 21.1266 47.4261 21.1285C45.691 21.2135 43.9558 21.3172 42.2207 21.4195C42.0499 21.4288 41.8804 21.466 41.7149 21.4899C41.7526 22.2062 41.8131 22.262 42.4493 22.3551C43.3761 22.4879 44.2961 22.674 45.2256 22.775C46.0999 22.8707 46.9836 22.9079 47.8646 22.9278C48.0321 22.925 48.1977 22.9624 48.3472 23.037C48.4967 23.1115 48.6256 23.2209 48.7228 23.3557C50.0423 24.9836 51.3443 26.6274 52.7257 28.2022C53.3686 28.937 54.1649 29.543 54.9141 30.1795C57.1012 32.04 59.2842 33.9004 61.5049 35.7237C62.4344 36.4864 63.4378 37.1602 64.4264 37.8499C64.7318 38.0638 64.8044 38.2951 64.7425 38.6379C64.339 40.897 63.9355 43.1561 63.532 45.4073C63.1769 47.3581 62.546 49.2385 61.9555 51.1215C61.2722 53.3035 60.5042 55.463 59.72 57.6131C59.0919 59.33 58.3481 60.9871 57.7361 62.6974C57.1684 64.2921 56.3305 65.7113 55.4198 67.1186C54.2604 68.9073 53.1588 70.7346 52.0357 72.5471C51.5259 73.3684 51.0242 74.1936 50.5157 75.0162C50.4424 75.1499 50.3305 75.259 50.1943 75.3298C50.2168 75.2399 50.2441 75.1511 50.2763 75.0641C51.2017 72.8368 52.1177 70.6043 53.0619 68.3851C54.0654 66.0276 55.0688 63.6768 55.6889 61.1772C56.1031 59.5041 56.6412 57.855 57.1308 56.2071C57.5343 54.8384 57.997 53.4829 58.3494 52.0995C58.7435 50.5607 58.9829 48.9806 59.3972 47.4484C60.0334 45.095 60.0872 42.6804 60.2971 40.2804C60.3148 40.1418 60.2997 40.001 60.253 39.8691C60.2063 39.7372 60.1293 39.6178 60.0281 39.5203C59.0098 38.4572 58.0104 37.3768 56.999 36.3057C55.2208 34.4205 53.4421 32.5357 51.6631 30.6513C50.8614 29.7982 50.0342 28.9782 49.2729 28.1012C48.4766 27.1882 47.7126 26.2407 46.9863 25.2706C46.7192 24.8845 46.319 24.6077 45.8604 24.4919C44.6983 24.1756 43.5415 23.8368 42.3861 23.4992C42.1104 23.4195 41.8737 23.3305 41.7486 23.7251C41.5589 24.3152 41.5495 24.3311 42.0082 24.5451C43.2255 25.1112 44.4468 25.6693 45.652 26.2567C45.8774 26.37 46.0645 26.546 46.19 26.763C47.1504 28.5317 48.0731 30.3177 49.0348 32.0865C49.8123 33.5235 50.6041 34.9511 51.4102 36.3695C52.4056 38.1343 53.4157 39.8884 54.4218 41.6465C54.5576 41.9077 54.7113 42.1595 54.8818 42.4C55.1508 42.7389 55.1172 43.0857 55.0163 43.4631C54.6289 44.9515 54.2564 46.4425 53.8797 47.9335C53.3229 50.1408 52.7728 52.3507 52.2051 54.5553C51.8998 55.7434 51.5649 56.9234 51.2394 58.1061C50.7767 59.7858 50.353 61.4748 49.8392 63.1386C49.1021 65.52 48.2627 67.8708 47.5391 70.2575C47.0777 71.779 46.3554 73.181 45.6708 74.595C44.8279 76.3438 43.9859 78.0926 43.1448 79.8414C42.9174 80.3145 42.7103 80.7969 42.4816 81.2686C42.4016 81.4149 42.3118 81.5556 42.2126 81.6899L42.1077 81.6487C42.1629 81.4108 42.2099 81.173 42.2745 80.9377C42.9228 78.6033 43.5738 76.268 44.2275 73.9318C44.6311 72.4913 45.0655 71.0588 45.4542 69.6143C45.9223 67.8752 46.3707 66.1304 46.7993 64.3798C47.3212 62.2602 47.835 60.138 48.3098 58.0011C48.7698 55.936 49.1814 53.8603 49.6038 51.7873C49.9844 49.9268 50.3503 48.0664 50.7269 46.1993C50.7888 45.8897 50.887 45.5867 50.9408 45.2757C51.0322 44.7548 51.1197 44.2711 50.8708 43.7169C50.1633 42.1422 49.55 40.5276 48.9084 38.9236C48.0798 36.8585 47.2674 34.7895 46.4334 32.727C45.8295 31.2307 45.2135 29.7397 44.5719 28.2593C44.4387 27.9715 44.2342 27.7215 43.9773 27.5324C43.1703 26.9371 42.3283 26.3909 41.5118 25.8115C41.2724 25.6414 41.1258 25.6281 40.9644 25.9019C40.7371 26.2859 40.4856 26.6553 40.2219 27.0155C40.0632 27.2307 40.0874 27.3809 40.2623 27.5749C41.2186 28.638 42.1575 29.7197 43.1138 30.7829C43.2148 30.8879 43.29 31.0143 43.3339 31.1525C43.3777 31.2908 43.3889 31.437 43.3667 31.5802C43.1192 33.927 42.9161 36.2778 42.6484 38.6233C42.5435 39.5442 42.327 40.4545 42.1292 41.3635C41.8172 42.7973 41.5199 44.2365 41.1393 45.6518C40.6523 47.4617 39.8641 49.1388 38.6428 50.5926C38.3146 50.9833 38.2904 51.0125 37.9138 50.6736C37.4188 50.2271 36.8552 49.9879 36.2029 50.1275C35.827 50.2162 35.4721 50.3759 35.1577 50.5979C34.6197 50.9647 34.5148 50.9873 34.1153 50.4344C33.3083 49.3262 32.5967 48.1647 32.2134 46.8465C31.8045 45.4361 31.4256 44.0186 31.0768 42.594C30.8199 41.5495 30.5818 40.4957 30.4191 39.4339C30.2334 38.222 30.1339 36.9967 30.0075 35.7755C29.8622 34.3682 29.7385 32.9583 29.5824 31.5523C29.5601 31.4213 29.5689 31.2869 29.6081 31.1599C29.6473 31.0328 29.7159 30.9165 29.8084 30.8201C30.7499 29.7649 31.6807 28.6938 32.633 27.6387C32.8563 27.3929 32.8805 27.2082 32.6774 26.9424C32.4151 26.5995 32.1865 26.2301 31.9592 25.8633C31.8247 25.6534 31.6996 25.6321 31.4978 25.773C30.5643 26.4241 29.5959 27.0288 28.7028 27.7304C28.4203 27.9523 28.3127 28.4108 28.1647 28.7762C27.1174 31.3002 26.0776 33.8216 25.0455 36.3403C24.1241 38.5994 23.2458 40.8744 22.3002 43.1176C21.8967 44.0771 21.933 44.9953 22.1657 45.9853C22.5598 47.7049 22.8517 49.4404 23.2014 51.1773C23.5969 53.1467 23.9843 55.1175 24.4187 57.0789C24.9271 59.3672 25.4477 61.6543 26.0261 63.9266C26.7282 66.6907 27.4895 69.4415 28.24 72.195C28.7498 74.0661 29.2838 75.9305 29.8057 77.7976C30.133 78.9643 30.4567 80.132 30.7768 81.3005C30.8038 81.3949 30.8105 81.4945 30.828 81.5916L30.7338 81.6341Z" stroke="#ECECEC" mask="url(#path-1-inside-1_503_19)"/>
</g>
<defs>
<filter id="filter0_d_503_19" x="0.5" y="0.310089" width="72" height="89.3798" filterUnits="userSpaceOnUse" color-interpolation-filters="sRGB">
<feFlood flood-opacity="0" result="BackgroundImageFix"/>
<feColorMatrix in="SourceAlpha" type="matrix" values="0 0 0 0 0 0 0 0 0 0 0 0 0 0 0 0 0 0 127 0" result="hardAlpha"/>
<feOffset dy="2"/>
<feGaussianBlur stdDeviation="3"/>
<feComposite in2="hardAlpha" operator="out"/>
<feColorMatrix type="matrix" values="0 0 0 0 0.0705882 0 0 0 0 0.0705882 0 0 0 0 0.0705882 0 0 0 0.32 0"/>
<feBlend mode="normal" in2="BackgroundImageFix" result="effect1_dropShadow_503_19"/>
<feBlend mode="normal" in="SourceGraphic" in2="effect1_dropShadow_503_19" result="shape"/>
</filter>
<linearGradient id="paint0_linear_503_19" x1="6.5" y1="43.3101" x2="66.5" y2="43.3101" gradientUnits="userSpaceOnUse">
<stop stop-color="#ECECEC"/>
<stop offset="1" stop-color="#ECECEC"/>
</linearGradient>
</defs>
</svg>
