<svg width="80" height="33" viewBox="0 0 80 33" fill="none" xmlns="http://www.w3.org/2000/svg">
<g id="MARVEL Vector">
<path d="M0 32.9499H80V0.517456H0V32.9499Z" fill="#E50B14"/>
<path d="M67.7994 9.1945H63.5294V14.5558H67.7994V18.8891H63.5294V24.331H67.7994V28.6002H58.8079V7.08887L55.0172 28.6002L49.4707 28.6136C49.4707 28.6136 46.6417 13.3799 46.6371 13.3478V13.3489C47.0944 15.8103 45.3754 18.3813 43.8552 19.3958L46.8566 28.6002H46.8439L46.8462 28.6054H42.1833L39.8944 20.7506L38.7913 20.8964V28.6002H38.7775V28.6054L29.7562 28.6002L29.2024 24.9495H25.5047L24.9485 28.6002H15.7664V17.1609L13.6303 28.6002H11.0989L8.93176 17.1609V28.6002H4.16775V4.86742H10.2164L12.3399 17.1289L14.5196 4.86742H20.5649V26.6931L24.2016 4.86431L30.5192 4.86742L34.0365 25.9361L34.0549 4.86742C34.0549 4.86742 38.8545 4.86535 38.8832 4.86742C43.2301 4.86742 45.2042 7.73732 45.7615 8.72601L45.2214 4.86742H50.044L52.2204 19.3214L54.422 4.86742H67.7994V9.1945Z" fill="white"/>
<path d="M38.8139 9.09094C38.8036 9.09094 38.7955 9.09094 38.7909 9.09094V16.7233C39.1632 16.7233 39.5436 16.6437 39.9101 16.4855C41.0213 15.9983 41.9669 14.7863 41.9669 12.8658C41.9669 9.19022 39.1862 9.08784 38.8139 9.09094Z" fill="#E50B14"/>
<path d="M26.0649 21.1704H28.7296L27.3725 11.0229L26.0649 21.1704Z" fill="#E50B14"/>
<path d="M77.3943 28.5949H68.6224V4.86322H73.3462V24.3268H77.3943V28.5949Z" fill="white"/>
</g>
</svg>
