<svg width="72" height="90" viewBox="0 0 72 90" fill="none" xmlns="http://www.w3.org/2000/svg">
<g id="Vector" filter="url(#filter0_di_334_88)">
<mask id="path-1-inside-1_334_88" fill="white">
<path d="M30.2338 81.7038C29.9944 81.2294 29.7402 80.7616 29.5155 80.2792C28.9291 79.0208 28.3615 77.7543 27.767 76.4946C26.8806 74.5996 25.9242 72.7365 25.1131 70.8109C24.5442 69.4607 24.1474 68.0362 23.7129 66.6329C23.0068 64.3538 22.2939 62.0748 21.655 59.7785C20.7538 56.544 19.9064 53.2962 19.0563 50.047C18.4873 47.857 17.9937 45.6484 17.4005 43.465C17.2431 42.887 17.535 42.5189 17.7516 42.1162C18.2466 41.186 18.8196 40.3063 19.3401 39.3933C19.9346 38.3502 20.4969 37.2897 21.0887 36.2452C21.6805 35.2007 22.2992 34.2107 22.8642 33.1702C24.0048 31.0559 25.1118 28.9257 26.239 26.8048C26.3923 26.5177 26.5819 26.2839 26.9639 26.2387C27.194 26.2108 27.4051 26.0393 27.6257 25.9357C28.6076 25.4759 29.5868 25.0055 30.5741 24.559C31.0489 24.3424 30.7207 24.0367 30.679 23.7709C30.6373 23.5052 30.4383 23.456 30.1894 23.5291C28.8618 23.9184 27.5289 24.2932 26.2067 24.6972C25.9891 24.7669 25.8003 24.9045 25.6686 25.0892C24.5038 26.8765 23.0094 28.3808 21.5474 29.9157C19.9292 31.626 18.3205 33.3535 16.6997 35.0652C15.5815 36.2496 14.4606 37.4319 13.3371 38.612C13.2025 38.7448 13.1218 38.9362 12.9739 39.0399C12.2247 39.5581 12.0767 40.2452 12.1978 41.1156C12.3578 42.2478 12.3323 43.4066 12.4924 44.5401C12.6403 45.6311 12.9107 46.7049 13.1286 47.7866C13.7043 50.6424 14.4319 53.4583 15.2807 56.2476C16.0702 58.8536 16.7603 61.4888 17.6184 64.0721C18.1672 65.7306 18.9272 67.3212 19.5983 68.9385C20.4511 70.9947 21.3066 73.0496 22.1647 75.1032C22.1859 75.1479 22.1978 75.1963 22.1996 75.2457C22.2015 75.295 22.1933 75.3441 22.1755 75.3903C22.0652 75.2295 21.9495 75.07 21.846 74.9052C20.4202 72.6301 18.994 70.3511 17.5673 68.0681C16.9244 67.0382 16.2316 66.0322 15.6842 64.9545C15.1206 63.8528 14.6969 62.6794 14.2235 61.5339C13.7634 60.4243 13.2819 59.324 12.8784 58.1944C12.1319 56.1161 11.3988 54.031 10.7263 51.9287C10.1721 50.2136 9.6686 48.4816 9.21576 46.7328C8.90909 45.5793 8.74096 44.3833 8.52574 43.1993C8.25673 41.7162 8.00924 40.2279 7.72812 38.7462C7.65549 38.3648 7.72812 38.1149 8.06708 37.8957C10.2649 36.4671 12.2287 34.7462 14.2221 33.0599C15.6452 31.8532 17.0212 30.5881 18.4873 29.436C19.9064 28.321 20.8815 26.8513 21.9845 25.4786C22.618 24.6945 23.2838 23.9357 23.9604 23.1862C24.0653 23.0693 24.2967 23.0321 24.4742 23.0188C25.4481 22.9444 26.4259 22.9231 27.3957 22.8195C28.3453 22.7185 29.2882 22.5444 30.2325 22.3929C30.3137 22.3846 30.3922 22.3593 30.4627 22.3188C30.5333 22.2783 30.5944 22.2234 30.642 22.1579C30.6895 22.0923 30.7224 22.0175 30.7386 21.9384C30.7547 21.8594 30.7537 21.7778 30.7355 21.6992C30.7153 21.6181 30.5472 21.5278 30.4396 21.5185C29.8854 21.468 29.3299 21.4414 28.7731 21.4095C27.5719 21.3404 26.3708 21.2633 25.1683 21.2155C24.9321 21.2012 24.6973 21.2592 24.4957 21.3816C23.4896 22.0939 22.5037 22.8341 21.5151 23.5689L16.1213 27.5809C14.3055 28.9301 12.4932 30.2785 10.6846 31.626L7.01254 34.3608C6.91839 34.4313 6.81885 34.4937 6.65744 34.5987C6.61171 34.4034 6.56598 34.2705 6.54984 34.1349C6.36422 32.5947 6.10462 31.0586 6.02661 29.5131C5.94994 28.026 6.06023 26.5284 6.09117 25.036C6.09117 24.9417 6.11673 24.8473 6.11538 24.7543C6.07099 23.0493 6.59961 21.4321 6.87266 19.7736C7.10939 18.3371 7.7483 17.0202 8.34282 15.7165C8.76517 14.797 9.46729 14.0049 10.0497 13.1545C10.2259 12.8966 10.4183 12.6508 10.6039 12.3983L10.7007 12.4528C10.3523 13.4202 10.0457 14.3903 9.64484 15.3245C9.10681 16.563 8.91178 17.8733 8.64546 19.1783C8.41782 20.3156 8.31947 21.4745 8.35223 22.6334C8.40065 24.7889 8.44101 26.9443 8.48674 29.0998C8.50247 29.2956 8.52941 29.4904 8.56744 29.6832C8.88488 29.4931 9.20097 29.331 9.48747 29.129C10.6052 28.341 11.7122 27.5343 12.8273 26.7437C14.4046 25.6221 15.9846 24.5032 17.5673 23.3869C19.6647 21.8985 21.7594 20.408 23.8515 18.9152C23.9532 18.8299 24.076 18.7727 24.2073 18.7494C24.3386 18.726 24.4739 18.7374 24.5993 18.7823C26.5963 19.3891 28.5982 19.9849 30.605 20.5696C30.8283 20.6348 31.0825 20.8075 31.2991 20.4966C31.4914 20.2215 31.513 20.0474 31.1767 19.86C30.1935 19.3152 29.2263 18.7411 28.2512 18.1803C27.276 17.6195 26.2753 17.0521 25.292 16.4767C25.1955 16.4051 25.0773 16.3682 24.9567 16.3721C24.8361 16.376 24.7205 16.4204 24.6289 16.4979C23.7721 17.0933 22.8991 17.662 22.0356 18.2481C20.2009 19.4937 18.3676 20.7406 16.5356 21.9889C15.4676 22.7171 14.405 23.4507 13.3397 24.1842C13.2214 24.2653 13.0923 24.3317 12.8999 24.45C12.8621 24.2786 12.8396 24.1043 12.8327 23.9291C12.9295 22.559 13.0237 21.1876 13.1407 19.8202C13.2954 18.0089 13.754 16.2508 14.3136 14.5392C14.8287 12.9618 15.4407 11.3711 16.2949 9.95582C17.3456 8.23758 18.6371 6.67484 20.131 5.31401C20.4565 5.01634 20.8197 4.75854 21.1654 4.48346L21.125 4.37981C21.1287 4.48251 21.1141 4.58506 21.082 4.68279C20.1875 6.28809 19.3159 7.90402 18.3743 9.47875C17.4704 10.9884 16.9378 12.6388 16.3567 14.276C16.2769 14.5606 16.2287 14.8529 16.2128 15.1478C16.0998 16.1511 15.9976 17.1544 15.8927 18.159C15.8961 18.2278 15.9069 18.2959 15.925 18.3624C16.0416 18.3207 16.1561 18.2732 16.268 18.2202L24.1797 13.888C24.6303 13.6408 25.0889 13.4069 25.5368 13.1558C25.7319 13.0468 25.8489 13.0588 26.0143 13.2435C26.929 14.2707 27.8275 15.3166 28.8053 16.2813C29.6285 17.0933 30.5539 17.8069 31.435 18.5564C31.5912 18.6585 31.7559 18.7474 31.9272 18.8222C31.8196 18.4022 31.7591 18.078 31.6582 17.771C31.5759 17.5627 31.5593 17.3347 31.6107 17.117C31.6621 16.8992 31.779 16.7019 31.9461 16.5511C32.7894 15.694 33.6409 14.8421 34.4896 13.9903C34.52 13.9644 34.5564 13.9462 34.5955 13.9371C34.6346 13.9281 34.6753 13.9286 34.7142 13.9385C34.6187 14.1538 34.5219 14.3704 34.4264 14.587C34.0726 15.3936 33.7539 16.2136 33.8399 17.1119C33.8786 17.3873 33.9699 17.6529 34.1089 17.8946C34.1561 17.9495 34.2163 17.9921 34.2841 18.0185C34.3519 18.045 34.4253 18.0544 34.4977 18.0461C35.4813 17.8246 36.5028 17.8246 37.4864 18.0461C37.5586 18.0493 37.6306 18.0362 37.6968 18.0076C37.763 17.979 37.8218 17.9358 37.8684 17.8813C38.2639 17.3604 38.2249 16.7531 38.0729 16.175C37.9128 15.5677 37.6586 14.979 37.4434 14.389C37.3909 14.2428 37.3317 14.1006 37.2752 13.9558L37.3586 13.892C37.4649 13.9797 37.5779 14.0608 37.6761 14.1578C38.319 14.7784 38.9754 15.3857 39.5928 16.0302C39.8801 16.335 40.1249 16.6764 40.3205 17.0454C40.4079 17.2062 40.3581 17.46 40.3205 17.6634C40.2559 18.0142 40.1523 18.3584 40.0649 18.7052L40.1604 18.7836C40.5478 18.5178 40.9742 18.3079 41.3145 17.9982C42.443 16.9684 43.5607 15.9239 44.6422 14.8461C45.1277 14.3624 45.5272 13.791 45.9469 13.2515C46.0922 13.0628 46.2159 13.0309 46.4177 13.1465C47.7843 13.8946 49.1562 14.6282 50.5242 15.3737C52.2225 16.3013 53.9196 17.2315 55.6152 18.1644C55.7467 18.227 55.8814 18.2829 56.0188 18.3318C56.0188 18.066 56.0363 17.868 56.0188 17.6674C55.9394 16.87 55.8237 16.0727 55.7659 15.2634C55.6852 14.1219 55.2467 13.08 54.8055 12.0621C54.1962 10.6575 53.4604 9.30865 52.7422 7.95053C52.1786 6.87546 51.5733 5.82431 50.9936 4.7612C50.9431 4.65411 50.8983 4.54456 50.8591 4.43296C50.9332 4.45789 51.0041 4.49134 51.0703 4.53263C52.7879 6.18842 54.3805 7.9492 55.6865 9.95449C56.4094 11.0788 56.9657 12.2996 57.3383 13.5797C57.7499 14.9591 58.1857 16.3385 58.4749 17.7458C58.7587 19.1158 58.8918 20.5165 59.0479 21.9092C59.1232 22.5896 59.1057 23.2806 59.1232 23.9676C59.1167 24.1208 59.1005 24.2735 59.0748 24.4247C58.9361 24.3668 58.8013 24.3002 58.6712 24.2254C56.0089 22.4066 53.3484 20.586 50.6896 18.7637C49.5597 17.9943 48.4164 17.2448 47.2866 16.474C47.2039 16.4061 47.1007 16.3674 46.9932 16.3641C46.8858 16.3607 46.7803 16.3928 46.6934 16.4554C44.7256 17.5943 42.7524 18.7251 40.7859 19.8667C40.6446 19.9491 40.3823 20.0089 40.5357 20.2799C40.6581 20.5032 40.7576 20.7451 41.1127 20.6361C42.5385 20.1931 43.9661 19.7617 45.3954 19.3418C46.1204 19.1251 46.8481 18.9178 47.5812 18.7278C47.7123 18.7122 47.8445 18.7464 47.951 18.8235C48.5657 19.2421 49.1724 19.6713 49.775 20.1045C51.0218 21.0002 52.2606 21.9065 53.5116 22.7969C54.4356 23.4613 55.3785 24.0912 56.3053 24.7463C58.6443 26.3981 60.9807 28.0566 63.3951 29.7669C63.4261 29.4519 63.4678 29.1994 63.4731 28.9443C63.5135 27.0564 63.5494 25.168 63.5807 23.2792C63.5902 22.741 63.6009 22.2015 63.5807 21.6633C63.5243 19.8481 63.1772 18.0753 62.6715 16.3478C62.4025 15.4308 61.9868 14.5604 61.6519 13.6621C61.5 13.2555 61.3901 12.8347 61.3237 12.4063C61.4286 12.5392 61.5416 12.6548 61.6358 12.789C62.2142 13.6209 62.8598 14.4169 63.3467 15.2979C63.8571 16.2017 64.2705 17.1557 64.5801 18.1444C64.9836 19.4946 65.2607 20.8859 65.5566 22.264C65.9857 24.2653 65.9521 26.3131 65.9978 28.3397C66.0274 29.6606 65.7476 30.9895 65.6037 32.3144C65.5392 32.9177 65.4701 33.5205 65.3966 34.123C65.3804 34.2559 65.3414 34.3994 65.2957 34.6186C64.9083 34.3409 64.5801 34.1123 64.2587 33.8745C61.8564 32.0893 59.4545 30.3037 57.0531 28.5177C55.1261 27.0754 53.1986 25.6309 51.2707 24.1842C50.0009 23.2363 48.7267 22.295 47.448 21.3603C47.2958 21.2531 47.113 21.1964 46.9261 21.1982C45.191 21.2833 43.4558 21.3869 41.7207 21.4892C41.5499 21.4985 41.3804 21.5357 41.2149 21.5597C41.2526 22.2759 41.3131 22.3317 41.9493 22.4248C42.8761 22.5577 43.7961 22.7437 44.7256 22.8447C45.5999 22.9404 46.4836 22.9776 47.3646 22.9975C47.5321 22.9947 47.6977 23.0321 47.8472 23.1067C47.9967 23.1812 48.1256 23.2906 48.2228 23.4254C49.5423 25.0533 50.8443 26.6971 52.2257 28.2719C52.8686 29.0068 53.6649 29.6127 54.4141 30.2493C56.6012 32.1097 58.7842 33.9701 61.0049 35.7934C61.9344 36.5562 62.9378 37.2299 63.9264 37.9196C64.2318 38.1336 64.3044 38.3648 64.2425 38.7076C63.839 40.9667 63.4355 43.2258 63.032 45.477C62.6769 47.4278 62.046 49.3082 61.4555 51.1912C60.7722 53.3732 60.0042 55.5327 59.22 57.6828C58.5919 59.3997 57.8481 61.0569 57.2361 62.7671C56.6684 64.3618 55.8305 65.7811 54.9198 67.1884C53.7604 68.977 52.6588 70.8043 51.5357 72.6169C51.0259 73.4381 50.5242 74.2634 50.0157 75.0859C49.9424 75.2196 49.8305 75.3288 49.6943 75.3996C49.7168 75.3096 49.7441 75.2209 49.7763 75.1338C50.7017 72.9066 51.6177 70.674 52.5619 68.4548C53.5654 66.0973 54.5688 63.7465 55.1889 61.2469C55.6031 59.5738 56.1412 57.9247 56.6308 56.2769C57.0343 54.9081 57.497 53.5526 57.8494 52.1693C58.2435 50.6304 58.4829 49.0504 58.8972 47.5182C59.5334 45.1647 59.5872 42.7501 59.7971 40.3501C59.8148 40.2115 59.7997 40.0707 59.753 39.9388C59.7063 39.8069 59.6293 39.6875 59.5281 39.59C58.5098 38.5269 57.5104 37.4465 56.499 36.3754C54.7208 34.4902 52.9421 32.6054 51.1631 30.721C50.3614 29.8679 49.5342 29.0479 48.7729 28.1709C47.9766 27.2579 47.2126 26.3104 46.4863 25.3404C46.2192 24.9542 45.819 24.6774 45.3604 24.5616C44.1983 24.2453 43.0415 23.9065 41.8861 23.5689C41.6104 23.4892 41.3737 23.4002 41.2486 23.7949C41.0589 24.3849 41.0495 24.4008 41.5082 24.6148C42.7255 25.1809 43.9468 25.739 45.152 26.3264C45.3774 26.4397 45.5645 26.6157 45.69 26.8327C46.6504 28.6014 47.5731 30.3875 48.5348 32.1562C49.3123 33.5932 50.1041 35.0209 50.9102 36.4392C51.9056 38.204 52.9157 39.9581 53.9218 41.7162C54.0576 41.9775 54.2113 42.2292 54.3818 42.4697C54.6508 42.8086 54.6172 43.1554 54.5163 43.5328C54.1289 45.0212 53.7564 46.5122 53.3797 48.0032C52.8229 50.2105 52.2728 52.4204 51.7051 54.625C51.3998 55.8131 51.0649 56.9931 50.7394 58.1758C50.2767 59.8556 49.853 61.5446 49.3392 63.2083C48.6021 65.5897 47.7627 67.9405 47.0391 70.3272C46.5777 71.8488 45.8554 73.2507 45.1708 74.6647C44.3279 76.4135 43.4859 78.1623 42.6448 79.9111C42.4174 80.3842 42.2103 80.8666 41.9816 81.3384C41.9016 81.4846 41.8118 81.6253 41.7126 81.7596L41.6077 81.7184C41.6629 81.4805 41.7099 81.2427 41.7745 81.0075C42.4228 78.673 43.0738 76.3377 43.7275 74.0016C44.1311 72.5611 44.5655 71.1285 44.9542 69.684C45.4223 67.9449 45.8707 66.2001 46.2993 64.4495C46.8212 62.3299 47.335 60.2077 47.8098 58.0709C48.2698 56.0058 48.6814 53.93 49.1038 51.857C49.4844 49.9965 49.8503 48.1361 50.2269 46.269C50.2888 45.9594 50.387 45.6564 50.4408 45.3454C50.5322 44.8245 50.6197 44.3408 50.3708 43.7866C49.6633 42.2119 49.05 40.5973 48.4084 38.9933C47.5798 36.9283 46.7674 34.8592 45.9334 32.7967C45.3295 31.3004 44.7135 29.8094 44.0719 28.329C43.9387 28.0412 43.7342 27.7912 43.4773 27.6021C42.6703 27.0068 41.8283 26.4606 41.0118 25.8812C40.7724 25.7111 40.6258 25.6978 40.4644 25.9716C40.2371 26.3556 39.9856 26.7251 39.7219 27.0852C39.5632 27.3005 39.5874 27.4506 39.7623 27.6446C40.7186 28.7078 41.6575 29.7895 42.6138 30.8526C42.7148 30.9576 42.79 31.0841 42.8339 31.2223C42.8777 31.3605 42.8889 31.5068 42.8667 31.6499C42.6192 33.9967 42.4161 36.3475 42.1484 38.693C42.0435 39.6139 41.827 40.5242 41.6292 41.4332C41.3172 42.867 41.0199 44.3062 40.6393 45.7215C40.1523 47.5314 39.3641 49.2085 38.1428 50.6623C37.8146 51.053 37.7904 51.0822 37.4138 50.7434C36.9188 50.2969 36.3552 50.0577 35.7029 50.1972C35.327 50.2859 34.9721 50.4456 34.6577 50.6676C34.1197 51.0344 34.0148 51.057 33.6153 50.5042C32.8083 49.3959 32.0967 48.2344 31.7134 46.9162C31.3045 45.5058 30.9256 44.0883 30.5768 42.6637C30.3199 41.6192 30.0818 40.5654 29.9191 39.5036C29.7334 38.2917 29.6339 37.0665 29.5075 35.8452C29.3622 34.4379 29.2385 33.028 29.0824 31.622C29.0601 31.491 29.0689 31.3567 29.1081 31.2296C29.1473 31.1025 29.2159 30.9862 29.3084 30.8898C30.2499 29.8347 31.1807 28.7636 32.133 27.7084C32.3563 27.4626 32.3805 27.2779 32.1774 27.0121C31.9151 26.6692 31.6865 26.2998 31.4592 25.933C31.3247 25.7231 31.1996 25.7018 30.9978 25.8427C30.0643 26.4938 29.0959 27.0985 28.2028 27.8001C27.9203 28.022 27.8127 28.4805 27.6647 28.846C26.6174 31.37 25.5776 33.8913 24.5455 36.41C23.6241 38.6691 22.7458 40.9442 21.8002 43.1873C21.3967 44.1468 21.433 45.065 21.6657 46.055C22.0598 47.7746 22.3517 49.5102 22.7014 51.247C23.0969 53.2164 23.4843 55.1872 23.9187 57.1486C24.4271 59.437 24.9477 61.724 25.5261 63.9964C26.2282 66.7605 26.9895 69.5112 27.74 72.2647C28.2498 74.1358 28.7838 76.0002 29.3057 77.8673C29.633 79.0341 29.9567 80.2017 30.2768 81.3702C30.3038 81.4646 30.3105 81.5643 30.328 81.6613L30.2338 81.7038Z"/>
</mask>
<path d="M30.2338 81.7038C29.9944 81.2294 29.7402 80.7616 29.5155 80.2792C28.9291 79.0208 28.3615 77.7543 27.767 76.4946C26.8806 74.5996 25.9242 72.7365 25.1131 70.8109C24.5442 69.4607 24.1474 68.0362 23.7129 66.6329C23.0068 64.3538 22.2939 62.0748 21.655 59.7785C20.7538 56.544 19.9064 53.2962 19.0563 50.047C18.4873 47.857 17.9937 45.6484 17.4005 43.465C17.2431 42.887 17.535 42.5189 17.7516 42.1162C18.2466 41.186 18.8196 40.3063 19.3401 39.3933C19.9346 38.3502 20.4969 37.2897 21.0887 36.2452C21.6805 35.2007 22.2992 34.2107 22.8642 33.1702C24.0048 31.0559 25.1118 28.9257 26.239 26.8048C26.3923 26.5177 26.5819 26.2839 26.9639 26.2387C27.194 26.2108 27.4051 26.0393 27.6257 25.9357C28.6076 25.4759 29.5868 25.0055 30.5741 24.559C31.0489 24.3424 30.7207 24.0367 30.679 23.7709C30.6373 23.5052 30.4383 23.456 30.1894 23.5291C28.8618 23.9184 27.5289 24.2932 26.2067 24.6972C25.9891 24.7669 25.8003 24.9045 25.6686 25.0892C24.5038 26.8765 23.0094 28.3808 21.5474 29.9157C19.9292 31.626 18.3205 33.3535 16.6997 35.0652C15.5815 36.2496 14.4606 37.4319 13.3371 38.612C13.2025 38.7448 13.1218 38.9362 12.9739 39.0399C12.2247 39.5581 12.0767 40.2452 12.1978 41.1156C12.3578 42.2478 12.3323 43.4066 12.4924 44.5401C12.6403 45.6311 12.9107 46.7049 13.1286 47.7866C13.7043 50.6424 14.4319 53.4583 15.2807 56.2476C16.0702 58.8536 16.7603 61.4888 17.6184 64.0721C18.1672 65.7306 18.9272 67.3212 19.5983 68.9385C20.4511 70.9947 21.3066 73.0496 22.1647 75.1032C22.1859 75.1479 22.1978 75.1963 22.1996 75.2457C22.2015 75.295 22.1933 75.3441 22.1755 75.3903C22.0652 75.2295 21.9495 75.07 21.846 74.9052C20.4202 72.6301 18.994 70.3511 17.5673 68.0681C16.9244 67.0382 16.2316 66.0322 15.6842 64.9545C15.1206 63.8528 14.6969 62.6794 14.2235 61.5339C13.7634 60.4243 13.2819 59.324 12.8784 58.1944C12.1319 56.1161 11.3988 54.031 10.7263 51.9287C10.1721 50.2136 9.6686 48.4816 9.21576 46.7328C8.90909 45.5793 8.74096 44.3833 8.52574 43.1993C8.25673 41.7162 8.00924 40.2279 7.72812 38.7462C7.65549 38.3648 7.72812 38.1149 8.06708 37.8957C10.2649 36.4671 12.2287 34.7462 14.2221 33.0599C15.6452 31.8532 17.0212 30.5881 18.4873 29.436C19.9064 28.321 20.8815 26.8513 21.9845 25.4786C22.618 24.6945 23.2838 23.9357 23.9604 23.1862C24.0653 23.0693 24.2967 23.0321 24.4742 23.0188C25.4481 22.9444 26.4259 22.9231 27.3957 22.8195C28.3453 22.7185 29.2882 22.5444 30.2325 22.3929C30.3137 22.3846 30.3922 22.3593 30.4627 22.3188C30.5333 22.2783 30.5944 22.2234 30.642 22.1579C30.6895 22.0923 30.7224 22.0175 30.7386 21.9384C30.7547 21.8594 30.7537 21.7778 30.7355 21.6992C30.7153 21.6181 30.5472 21.5278 30.4396 21.5185C29.8854 21.468 29.3299 21.4414 28.7731 21.4095C27.5719 21.3404 26.3708 21.2633 25.1683 21.2155C24.9321 21.2012 24.6973 21.2592 24.4957 21.3816C23.4896 22.0939 22.5037 22.8341 21.5151 23.5689L16.1213 27.5809C14.3055 28.9301 12.4932 30.2785 10.6846 31.626L7.01254 34.3608C6.91839 34.4313 6.81885 34.4937 6.65744 34.5987C6.61171 34.4034 6.56598 34.2705 6.54984 34.1349C6.36422 32.5947 6.10462 31.0586 6.02661 29.5131C5.94994 28.026 6.06023 26.5284 6.09117 25.036C6.09117 24.9417 6.11673 24.8473 6.11538 24.7543C6.07099 23.0493 6.59961 21.4321 6.87266 19.7736C7.10939 18.3371 7.7483 17.0202 8.34282 15.7165C8.76517 14.797 9.46729 14.0049 10.0497 13.1545C10.2259 12.8966 10.4183 12.6508 10.6039 12.3983L10.7007 12.4528C10.3523 13.4202 10.0457 14.3903 9.64484 15.3245C9.10681 16.563 8.91178 17.8733 8.64546 19.1783C8.41782 20.3156 8.31947 21.4745 8.35223 22.6334C8.40065 24.7889 8.44101 26.9443 8.48674 29.0998C8.50247 29.2956 8.52941 29.4904 8.56744 29.6832C8.88488 29.4931 9.20097 29.331 9.48747 29.129C10.6052 28.341 11.7122 27.5343 12.8273 26.7437C14.4046 25.6221 15.9846 24.5032 17.5673 23.3869C19.6647 21.8985 21.7594 20.408 23.8515 18.9152C23.9532 18.8299 24.076 18.7727 24.2073 18.7494C24.3386 18.726 24.4739 18.7374 24.5993 18.7823C26.5963 19.3891 28.5982 19.9849 30.605 20.5696C30.8283 20.6348 31.0825 20.8075 31.2991 20.4966C31.4914 20.2215 31.513 20.0474 31.1767 19.86C30.1935 19.3152 29.2263 18.7411 28.2512 18.1803C27.276 17.6195 26.2753 17.0521 25.292 16.4767C25.1955 16.4051 25.0773 16.3682 24.9567 16.3721C24.8361 16.376 24.7205 16.4204 24.6289 16.4979C23.7721 17.0933 22.8991 17.662 22.0356 18.2481C20.2009 19.4937 18.3676 20.7406 16.5356 21.9889C15.4676 22.7171 14.405 23.4507 13.3397 24.1842C13.2214 24.2653 13.0923 24.3317 12.8999 24.45C12.8621 24.2786 12.8396 24.1043 12.8327 23.9291C12.9295 22.559 13.0237 21.1876 13.1407 19.8202C13.2954 18.0089 13.754 16.2508 14.3136 14.5392C14.8287 12.9618 15.4407 11.3711 16.2949 9.95582C17.3456 8.23758 18.6371 6.67484 20.131 5.31401C20.4565 5.01634 20.8197 4.75854 21.1654 4.48346L21.125 4.37981C21.1287 4.48251 21.1141 4.58506 21.082 4.68279C20.1875 6.28809 19.3159 7.90402 18.3743 9.47875C17.4704 10.9884 16.9378 12.6388 16.3567 14.276C16.2769 14.5606 16.2287 14.8529 16.2128 15.1478C16.0998 16.1511 15.9976 17.1544 15.8927 18.159C15.8961 18.2278 15.9069 18.2959 15.925 18.3624C16.0416 18.3207 16.1561 18.2732 16.268 18.2202L24.1797 13.888C24.6303 13.6408 25.0889 13.4069 25.5368 13.1558C25.7319 13.0468 25.8489 13.0588 26.0143 13.2435C26.929 14.2707 27.8275 15.3166 28.8053 16.2813C29.6285 17.0933 30.5539 17.8069 31.435 18.5564C31.5912 18.6585 31.7559 18.7474 31.9272 18.8222C31.8196 18.4022 31.7591 18.078 31.6582 17.771C31.5759 17.5627 31.5593 17.3347 31.6107 17.117C31.6621 16.8992 31.779 16.7019 31.9461 16.5511C32.7894 15.694 33.6409 14.8421 34.4896 13.9903C34.52 13.9644 34.5564 13.9462 34.5955 13.9371C34.6346 13.9281 34.6753 13.9286 34.7142 13.9385C34.6187 14.1538 34.5219 14.3704 34.4264 14.587C34.0726 15.3936 33.7539 16.2136 33.8399 17.1119C33.8786 17.3873 33.9699 17.6529 34.1089 17.8946C34.1561 17.9495 34.2163 17.9921 34.2841 18.0185C34.3519 18.045 34.4253 18.0544 34.4977 18.0461C35.4813 17.8246 36.5028 17.8246 37.4864 18.0461C37.5586 18.0493 37.6306 18.0362 37.6968 18.0076C37.763 17.979 37.8218 17.9358 37.8684 17.8813C38.2639 17.3604 38.2249 16.7531 38.0729 16.175C37.9128 15.5677 37.6586 14.979 37.4434 14.389C37.3909 14.2428 37.3317 14.1006 37.2752 13.9558L37.3586 13.892C37.4649 13.9797 37.5779 14.0608 37.6761 14.1578C38.319 14.7784 38.9754 15.3857 39.5928 16.0302C39.8801 16.335 40.1249 16.6764 40.3205 17.0454C40.4079 17.2062 40.3581 17.46 40.3205 17.6634C40.2559 18.0142 40.1523 18.3584 40.0649 18.7052L40.1604 18.7836C40.5478 18.5178 40.9742 18.3079 41.3145 17.9982C42.443 16.9684 43.5607 15.9239 44.6422 14.8461C45.1277 14.3624 45.5272 13.791 45.9469 13.2515C46.0922 13.0628 46.2159 13.0309 46.4177 13.1465C47.7843 13.8946 49.1562 14.6282 50.5242 15.3737C52.2225 16.3013 53.9196 17.2315 55.6152 18.1644C55.7467 18.227 55.8814 18.2829 56.0188 18.3318C56.0188 18.066 56.0363 17.868 56.0188 17.6674C55.9394 16.87 55.8237 16.0727 55.7659 15.2634C55.6852 14.1219 55.2467 13.08 54.8055 12.0621C54.1962 10.6575 53.4604 9.30865 52.7422 7.95053C52.1786 6.87546 51.5733 5.82431 50.9936 4.7612C50.9431 4.65411 50.8983 4.54456 50.8591 4.43296C50.9332 4.45789 51.0041 4.49134 51.0703 4.53263C52.7879 6.18842 54.3805 7.9492 55.6865 9.95449C56.4094 11.0788 56.9657 12.2996 57.3383 13.5797C57.7499 14.9591 58.1857 16.3385 58.4749 17.7458C58.7587 19.1158 58.8918 20.5165 59.0479 21.9092C59.1232 22.5896 59.1057 23.2806 59.1232 23.9676C59.1167 24.1208 59.1005 24.2735 59.0748 24.4247C58.9361 24.3668 58.8013 24.3002 58.6712 24.2254C56.0089 22.4066 53.3484 20.586 50.6896 18.7637C49.5597 17.9943 48.4164 17.2448 47.2866 16.474C47.2039 16.4061 47.1007 16.3674 46.9932 16.3641C46.8858 16.3607 46.7803 16.3928 46.6934 16.4554C44.7256 17.5943 42.7524 18.7251 40.7859 19.8667C40.6446 19.9491 40.3823 20.0089 40.5357 20.2799C40.6581 20.5032 40.7576 20.7451 41.1127 20.6361C42.5385 20.1931 43.9661 19.7617 45.3954 19.3418C46.1204 19.1251 46.8481 18.9178 47.5812 18.7278C47.7123 18.7122 47.8445 18.7464 47.951 18.8235C48.5657 19.2421 49.1724 19.6713 49.775 20.1045C51.0218 21.0002 52.2606 21.9065 53.5116 22.7969C54.4356 23.4613 55.3785 24.0912 56.3053 24.7463C58.6443 26.3981 60.9807 28.0566 63.3951 29.7669C63.4261 29.4519 63.4678 29.1994 63.4731 28.9443C63.5135 27.0564 63.5494 25.168 63.5807 23.2792C63.5902 22.741 63.6009 22.2015 63.5807 21.6633C63.5243 19.8481 63.1772 18.0753 62.6715 16.3478C62.4025 15.4308 61.9868 14.5604 61.6519 13.6621C61.5 13.2555 61.3901 12.8347 61.3237 12.4063C61.4286 12.5392 61.5416 12.6548 61.6358 12.789C62.2142 13.6209 62.8598 14.4169 63.3467 15.2979C63.8571 16.2017 64.2705 17.1557 64.5801 18.1444C64.9836 19.4946 65.2607 20.8859 65.5566 22.264C65.9857 24.2653 65.9521 26.3131 65.9978 28.3397C66.0274 29.6606 65.7476 30.9895 65.6037 32.3144C65.5392 32.9177 65.4701 33.5205 65.3966 34.123C65.3804 34.2559 65.3414 34.3994 65.2957 34.6186C64.9083 34.3409 64.5801 34.1123 64.2587 33.8745C61.8564 32.0893 59.4545 30.3037 57.0531 28.5177C55.1261 27.0754 53.1986 25.6309 51.2707 24.1842C50.0009 23.2363 48.7267 22.295 47.448 21.3603C47.2958 21.2531 47.113 21.1964 46.9261 21.1982C45.191 21.2833 43.4558 21.3869 41.7207 21.4892C41.5499 21.4985 41.3804 21.5357 41.2149 21.5597C41.2526 22.2759 41.3131 22.3317 41.9493 22.4248C42.8761 22.5577 43.7961 22.7437 44.7256 22.8447C45.5999 22.9404 46.4836 22.9776 47.3646 22.9975C47.5321 22.9947 47.6977 23.0321 47.8472 23.1067C47.9967 23.1812 48.1256 23.2906 48.2228 23.4254C49.5423 25.0533 50.8443 26.6971 52.2257 28.2719C52.8686 29.0068 53.6649 29.6127 54.4141 30.2493C56.6012 32.1097 58.7842 33.9701 61.0049 35.7934C61.9344 36.5562 62.9378 37.2299 63.9264 37.9196C64.2318 38.1336 64.3044 38.3648 64.2425 38.7076C63.839 40.9667 63.4355 43.2258 63.032 45.477C62.6769 47.4278 62.046 49.3082 61.4555 51.1912C60.7722 53.3732 60.0042 55.5327 59.22 57.6828C58.5919 59.3997 57.8481 61.0569 57.2361 62.7671C56.6684 64.3618 55.8305 65.7811 54.9198 67.1884C53.7604 68.977 52.6588 70.8043 51.5357 72.6169C51.0259 73.4381 50.5242 74.2634 50.0157 75.0859C49.9424 75.2196 49.8305 75.3288 49.6943 75.3996C49.7168 75.3096 49.7441 75.2209 49.7763 75.1338C50.7017 72.9066 51.6177 70.674 52.5619 68.4548C53.5654 66.0973 54.5688 63.7465 55.1889 61.2469C55.6031 59.5738 56.1412 57.9247 56.6308 56.2769C57.0343 54.9081 57.497 53.5526 57.8494 52.1693C58.2435 50.6304 58.4829 49.0504 58.8972 47.5182C59.5334 45.1647 59.5872 42.7501 59.7971 40.3501C59.8148 40.2115 59.7997 40.0707 59.753 39.9388C59.7063 39.8069 59.6293 39.6875 59.5281 39.59C58.5098 38.5269 57.5104 37.4465 56.499 36.3754C54.7208 34.4902 52.9421 32.6054 51.1631 30.721C50.3614 29.8679 49.5342 29.0479 48.7729 28.1709C47.9766 27.2579 47.2126 26.3104 46.4863 25.3404C46.2192 24.9542 45.819 24.6774 45.3604 24.5616C44.1983 24.2453 43.0415 23.9065 41.8861 23.5689C41.6104 23.4892 41.3737 23.4002 41.2486 23.7949C41.0589 24.3849 41.0495 24.4008 41.5082 24.6148C42.7255 25.1809 43.9468 25.739 45.152 26.3264C45.3774 26.4397 45.5645 26.6157 45.69 26.8327C46.6504 28.6014 47.5731 30.3875 48.5348 32.1562C49.3123 33.5932 50.1041 35.0209 50.9102 36.4392C51.9056 38.204 52.9157 39.9581 53.9218 41.7162C54.0576 41.9775 54.2113 42.2292 54.3818 42.4697C54.6508 42.8086 54.6172 43.1554 54.5163 43.5328C54.1289 45.0212 53.7564 46.5122 53.3797 48.0032C52.8229 50.2105 52.2728 52.4204 51.7051 54.625C51.3998 55.8131 51.0649 56.9931 50.7394 58.1758C50.2767 59.8556 49.853 61.5446 49.3392 63.2083C48.6021 65.5897 47.7627 67.9405 47.0391 70.3272C46.5777 71.8488 45.8554 73.2507 45.1708 74.6647C44.3279 76.4135 43.4859 78.1623 42.6448 79.9111C42.4174 80.3842 42.2103 80.8666 41.9816 81.3384C41.9016 81.4846 41.8118 81.6253 41.7126 81.7596L41.6077 81.7184C41.6629 81.4805 41.7099 81.2427 41.7745 81.0075C42.4228 78.673 43.0738 76.3377 43.7275 74.0016C44.1311 72.5611 44.5655 71.1285 44.9542 69.684C45.4223 67.9449 45.8707 66.2001 46.2993 64.4495C46.8212 62.3299 47.335 60.2077 47.8098 58.0709C48.2698 56.0058 48.6814 53.93 49.1038 51.857C49.4844 49.9965 49.8503 48.1361 50.2269 46.269C50.2888 45.9594 50.387 45.6564 50.4408 45.3454C50.5322 44.8245 50.6197 44.3408 50.3708 43.7866C49.6633 42.2119 49.05 40.5973 48.4084 38.9933C47.5798 36.9283 46.7674 34.8592 45.9334 32.7967C45.3295 31.3004 44.7135 29.8094 44.0719 28.329C43.9387 28.0412 43.7342 27.7912 43.4773 27.6021C42.6703 27.0068 41.8283 26.4606 41.0118 25.8812C40.7724 25.7111 40.6258 25.6978 40.4644 25.9716C40.2371 26.3556 39.9856 26.7251 39.7219 27.0852C39.5632 27.3005 39.5874 27.4506 39.7623 27.6446C40.7186 28.7078 41.6575 29.7895 42.6138 30.8526C42.7148 30.9576 42.79 31.0841 42.8339 31.2223C42.8777 31.3605 42.8889 31.5068 42.8667 31.6499C42.6192 33.9967 42.4161 36.3475 42.1484 38.693C42.0435 39.6139 41.827 40.5242 41.6292 41.4332C41.3172 42.867 41.0199 44.3062 40.6393 45.7215C40.1523 47.5314 39.3641 49.2085 38.1428 50.6623C37.8146 51.053 37.7904 51.0822 37.4138 50.7434C36.9188 50.2969 36.3552 50.0577 35.7029 50.1972C35.327 50.2859 34.9721 50.4456 34.6577 50.6676C34.1197 51.0344 34.0148 51.057 33.6153 50.5042C32.8083 49.3959 32.0967 48.2344 31.7134 46.9162C31.3045 45.5058 30.9256 44.0883 30.5768 42.6637C30.3199 41.6192 30.0818 40.5654 29.9191 39.5036C29.7334 38.2917 29.6339 37.0665 29.5075 35.8452C29.3622 34.4379 29.2385 33.028 29.0824 31.622C29.0601 31.491 29.0689 31.3567 29.1081 31.2296C29.1473 31.1025 29.2159 30.9862 29.3084 30.8898C30.2499 29.8347 31.1807 28.7636 32.133 27.7084C32.3563 27.4626 32.3805 27.2779 32.1774 27.0121C31.9151 26.6692 31.6865 26.2998 31.4592 25.933C31.3247 25.7231 31.1996 25.7018 30.9978 25.8427C30.0643 26.4938 29.0959 27.0985 28.2028 27.8001C27.9203 28.022 27.8127 28.4805 27.6647 28.846C26.6174 31.37 25.5776 33.8913 24.5455 36.41C23.6241 38.6691 22.7458 40.9442 21.8002 43.1873C21.3967 44.1468 21.433 45.065 21.6657 46.055C22.0598 47.7746 22.3517 49.5102 22.7014 51.247C23.0969 53.2164 23.4843 55.1872 23.9187 57.1486C24.4271 59.437 24.9477 61.724 25.5261 63.9964C26.2282 66.7605 26.9895 69.5112 27.74 72.2647C28.2498 74.1358 28.7838 76.0002 29.3057 77.8673C29.633 79.0341 29.9567 80.2017 30.2768 81.3702C30.3038 81.4646 30.3105 81.5643 30.328 81.6613L30.2338 81.7038Z" fill="url(#paint0_linear_334_88)"/>
<path d="M30.2338 81.7038C29.9944 81.2294 29.7402 80.7616 29.5155 80.2792C28.9291 79.0208 28.3615 77.7543 27.767 76.4946C26.8806 74.5996 25.9242 72.7365 25.1131 70.8109C24.5442 69.4607 24.1474 68.0362 23.7129 66.6329C23.0068 64.3538 22.2939 62.0748 21.655 59.7785C20.7538 56.544 19.9064 53.2962 19.0563 50.047C18.4873 47.857 17.9937 45.6484 17.4005 43.465C17.2431 42.887 17.535 42.5189 17.7516 42.1162C18.2466 41.186 18.8196 40.3063 19.3401 39.3933C19.9346 38.3502 20.4969 37.2897 21.0887 36.2452C21.6805 35.2007 22.2992 34.2107 22.8642 33.1702C24.0048 31.0559 25.1118 28.9257 26.239 26.8048C26.3923 26.5177 26.5819 26.2839 26.9639 26.2387C27.194 26.2108 27.4051 26.0393 27.6257 25.9357C28.6076 25.4759 29.5868 25.0055 30.5741 24.559C31.0489 24.3424 30.7207 24.0367 30.679 23.7709C30.6373 23.5052 30.4383 23.456 30.1894 23.5291C28.8618 23.9184 27.5289 24.2932 26.2067 24.6972C25.9891 24.7669 25.8003 24.9045 25.6686 25.0892C24.5038 26.8765 23.0094 28.3808 21.5474 29.9157C19.9292 31.626 18.3205 33.3535 16.6997 35.0652C15.5815 36.2496 14.4606 37.4319 13.3371 38.612C13.2025 38.7448 13.1218 38.9362 12.9739 39.0399C12.2247 39.5581 12.0767 40.2452 12.1978 41.1156C12.3578 42.2478 12.3323 43.4066 12.4924 44.5401C12.6403 45.6311 12.9107 46.7049 13.1286 47.7866C13.7043 50.6424 14.4319 53.4583 15.2807 56.2476C16.0702 58.8536 16.7603 61.4888 17.6184 64.0721C18.1672 65.7306 18.9272 67.3212 19.5983 68.9385C20.4511 70.9947 21.3066 73.0496 22.1647 75.1032C22.1859 75.1479 22.1978 75.1963 22.1996 75.2457C22.2015 75.295 22.1933 75.3441 22.1755 75.3903C22.0652 75.2295 21.9495 75.07 21.846 74.9052C20.4202 72.6301 18.994 70.3511 17.5673 68.0681C16.9244 67.0382 16.2316 66.0322 15.6842 64.9545C15.1206 63.8528 14.6969 62.6794 14.2235 61.5339C13.7634 60.4243 13.2819 59.324 12.8784 58.1944C12.1319 56.1161 11.3988 54.031 10.7263 51.9287C10.1721 50.2136 9.6686 48.4816 9.21576 46.7328C8.90909 45.5793 8.74096 44.3833 8.52574 43.1993C8.25673 41.7162 8.00924 40.2279 7.72812 38.7462C7.65549 38.3648 7.72812 38.1149 8.06708 37.8957C10.2649 36.4671 12.2287 34.7462 14.2221 33.0599C15.6452 31.8532 17.0212 30.5881 18.4873 29.436C19.9064 28.321 20.8815 26.8513 21.9845 25.4786C22.618 24.6945 23.2838 23.9357 23.9604 23.1862C24.0653 23.0693 24.2967 23.0321 24.4742 23.0188C25.4481 22.9444 26.4259 22.9231 27.3957 22.8195C28.3453 22.7185 29.2882 22.5444 30.2325 22.3929C30.3137 22.3846 30.3922 22.3593 30.4627 22.3188C30.5333 22.2783 30.5944 22.2234 30.642 22.1579C30.6895 22.0923 30.7224 22.0175 30.7386 21.9384C30.7547 21.8594 30.7537 21.7778 30.7355 21.6992C30.7153 21.6181 30.5472 21.5278 30.4396 21.5185C29.8854 21.468 29.3299 21.4414 28.7731 21.4095C27.5719 21.3404 26.3708 21.2633 25.1683 21.2155C24.9321 21.2012 24.6973 21.2592 24.4957 21.3816C23.4896 22.0939 22.5037 22.8341 21.5151 23.5689L16.1213 27.5809C14.3055 28.9301 12.4932 30.2785 10.6846 31.626L7.01254 34.3608C6.91839 34.4313 6.81885 34.4937 6.65744 34.5987C6.61171 34.4034 6.56598 34.2705 6.54984 34.1349C6.36422 32.5947 6.10462 31.0586 6.02661 29.5131C5.94994 28.026 6.06023 26.5284 6.09117 25.036C6.09117 24.9417 6.11673 24.8473 6.11538 24.7543C6.07099 23.0493 6.59961 21.4321 6.87266 19.7736C7.10939 18.3371 7.7483 17.0202 8.34282 15.7165C8.76517 14.797 9.46729 14.0049 10.0497 13.1545C10.2259 12.8966 10.4183 12.6508 10.6039 12.3983L10.7007 12.4528C10.3523 13.4202 10.0457 14.3903 9.64484 15.3245C9.10681 16.563 8.91178 17.8733 8.64546 19.1783C8.41782 20.3156 8.31947 21.4745 8.35223 22.6334C8.40065 24.7889 8.44101 26.9443 8.48674 29.0998C8.50247 29.2956 8.52941 29.4904 8.56744 29.6832C8.88488 29.4931 9.20097 29.331 9.48747 29.129C10.6052 28.341 11.7122 27.5343 12.8273 26.7437C14.4046 25.6221 15.9846 24.5032 17.5673 23.3869C19.6647 21.8985 21.7594 20.408 23.8515 18.9152C23.9532 18.8299 24.076 18.7727 24.2073 18.7494C24.3386 18.726 24.4739 18.7374 24.5993 18.7823C26.5963 19.3891 28.5982 19.9849 30.605 20.5696C30.8283 20.6348 31.0825 20.8075 31.2991 20.4966C31.4914 20.2215 31.513 20.0474 31.1767 19.86C30.1935 19.3152 29.2263 18.7411 28.2512 18.1803C27.276 17.6195 26.2753 17.0521 25.292 16.4767C25.1955 16.4051 25.0773 16.3682 24.9567 16.3721C24.8361 16.376 24.7205 16.4204 24.6289 16.4979C23.7721 17.0933 22.8991 17.662 22.0356 18.2481C20.2009 19.4937 18.3676 20.7406 16.5356 21.9889C15.4676 22.7171 14.405 23.4507 13.3397 24.1842C13.2214 24.2653 13.0923 24.3317 12.8999 24.45C12.8621 24.2786 12.8396 24.1043 12.8327 23.9291C12.9295 22.559 13.0237 21.1876 13.1407 19.8202C13.2954 18.0089 13.754 16.2508 14.3136 14.5392C14.8287 12.9618 15.4407 11.3711 16.2949 9.95582C17.3456 8.23758 18.6371 6.67484 20.131 5.31401C20.4565 5.01634 20.8197 4.75854 21.1654 4.48346L21.125 4.37981C21.1287 4.48251 21.1141 4.58506 21.082 4.68279C20.1875 6.28809 19.3159 7.90402 18.3743 9.47875C17.4704 10.9884 16.9378 12.6388 16.3567 14.276C16.2769 14.5606 16.2287 14.8529 16.2128 15.1478C16.0998 16.1511 15.9976 17.1544 15.8927 18.159C15.8961 18.2278 15.9069 18.2959 15.925 18.3624C16.0416 18.3207 16.1561 18.2732 16.268 18.2202L24.1797 13.888C24.6303 13.6408 25.0889 13.4069 25.5368 13.1558C25.7319 13.0468 25.8489 13.0588 26.0143 13.2435C26.929 14.2707 27.8275 15.3166 28.8053 16.2813C29.6285 17.0933 30.5539 17.8069 31.435 18.5564C31.5912 18.6585 31.7559 18.7474 31.9272 18.8222C31.8196 18.4022 31.7591 18.078 31.6582 17.771C31.5759 17.5627 31.5593 17.3347 31.6107 17.117C31.6621 16.8992 31.779 16.7019 31.9461 16.5511C32.7894 15.694 33.6409 14.8421 34.4896 13.9903C34.52 13.9644 34.5564 13.9462 34.5955 13.9371C34.6346 13.9281 34.6753 13.9286 34.7142 13.9385C34.6187 14.1538 34.5219 14.3704 34.4264 14.587C34.0726 15.3936 33.7539 16.2136 33.8399 17.1119C33.8786 17.3873 33.9699 17.6529 34.1089 17.8946C34.1561 17.9495 34.2163 17.9921 34.2841 18.0185C34.3519 18.045 34.4253 18.0544 34.4977 18.0461C35.4813 17.8246 36.5028 17.8246 37.4864 18.0461C37.5586 18.0493 37.6306 18.0362 37.6968 18.0076C37.763 17.979 37.8218 17.9358 37.8684 17.8813C38.2639 17.3604 38.2249 16.7531 38.0729 16.175C37.9128 15.5677 37.6586 14.979 37.4434 14.389C37.3909 14.2428 37.3317 14.1006 37.2752 13.9558L37.3586 13.892C37.4649 13.9797 37.5779 14.0608 37.6761 14.1578C38.319 14.7784 38.9754 15.3857 39.5928 16.0302C39.8801 16.335 40.1249 16.6764 40.3205 17.0454C40.4079 17.2062 40.3581 17.46 40.3205 17.6634C40.2559 18.0142 40.1523 18.3584 40.0649 18.7052L40.1604 18.7836C40.5478 18.5178 40.9742 18.3079 41.3145 17.9982C42.443 16.9684 43.5607 15.9239 44.6422 14.8461C45.1277 14.3624 45.5272 13.791 45.9469 13.2515C46.0922 13.0628 46.2159 13.0309 46.4177 13.1465C47.7843 13.8946 49.1562 14.6282 50.5242 15.3737C52.2225 16.3013 53.9196 17.2315 55.6152 18.1644C55.7467 18.227 55.8814 18.2829 56.0188 18.3318C56.0188 18.066 56.0363 17.868 56.0188 17.6674C55.9394 16.87 55.8237 16.0727 55.7659 15.2634C55.6852 14.1219 55.2467 13.08 54.8055 12.0621C54.1962 10.6575 53.4604 9.30865 52.7422 7.95053C52.1786 6.87546 51.5733 5.82431 50.9936 4.7612C50.9431 4.65411 50.8983 4.54456 50.8591 4.43296C50.9332 4.45789 51.0041 4.49134 51.0703 4.53263C52.7879 6.18842 54.3805 7.9492 55.6865 9.95449C56.4094 11.0788 56.9657 12.2996 57.3383 13.5797C57.7499 14.9591 58.1857 16.3385 58.4749 17.7458C58.7587 19.1158 58.8918 20.5165 59.0479 21.9092C59.1232 22.5896 59.1057 23.2806 59.1232 23.9676C59.1167 24.1208 59.1005 24.2735 59.0748 24.4247C58.9361 24.3668 58.8013 24.3002 58.6712 24.2254C56.0089 22.4066 53.3484 20.586 50.6896 18.7637C49.5597 17.9943 48.4164 17.2448 47.2866 16.474C47.2039 16.4061 47.1007 16.3674 46.9932 16.3641C46.8858 16.3607 46.7803 16.3928 46.6934 16.4554C44.7256 17.5943 42.7524 18.7251 40.7859 19.8667C40.6446 19.9491 40.3823 20.0089 40.5357 20.2799C40.6581 20.5032 40.7576 20.7451 41.1127 20.6361C42.5385 20.1931 43.9661 19.7617 45.3954 19.3418C46.1204 19.1251 46.8481 18.9178 47.5812 18.7278C47.7123 18.7122 47.8445 18.7464 47.951 18.8235C48.5657 19.2421 49.1724 19.6713 49.775 20.1045C51.0218 21.0002 52.2606 21.9065 53.5116 22.7969C54.4356 23.4613 55.3785 24.0912 56.3053 24.7463C58.6443 26.3981 60.9807 28.0566 63.3951 29.7669C63.4261 29.4519 63.4678 29.1994 63.4731 28.9443C63.5135 27.0564 63.5494 25.168 63.5807 23.2792C63.5902 22.741 63.6009 22.2015 63.5807 21.6633C63.5243 19.8481 63.1772 18.0753 62.6715 16.3478C62.4025 15.4308 61.9868 14.5604 61.6519 13.6621C61.5 13.2555 61.3901 12.8347 61.3237 12.4063C61.4286 12.5392 61.5416 12.6548 61.6358 12.789C62.2142 13.6209 62.8598 14.4169 63.3467 15.2979C63.8571 16.2017 64.2705 17.1557 64.5801 18.1444C64.9836 19.4946 65.2607 20.8859 65.5566 22.264C65.9857 24.2653 65.9521 26.3131 65.9978 28.3397C66.0274 29.6606 65.7476 30.9895 65.6037 32.3144C65.5392 32.9177 65.4701 33.5205 65.3966 34.123C65.3804 34.2559 65.3414 34.3994 65.2957 34.6186C64.9083 34.3409 64.5801 34.1123 64.2587 33.8745C61.8564 32.0893 59.4545 30.3037 57.0531 28.5177C55.1261 27.0754 53.1986 25.6309 51.2707 24.1842C50.0009 23.2363 48.7267 22.295 47.448 21.3603C47.2958 21.2531 47.113 21.1964 46.9261 21.1982C45.191 21.2833 43.4558 21.3869 41.7207 21.4892C41.5499 21.4985 41.3804 21.5357 41.2149 21.5597C41.2526 22.2759 41.3131 22.3317 41.9493 22.4248C42.8761 22.5577 43.7961 22.7437 44.7256 22.8447C45.5999 22.9404 46.4836 22.9776 47.3646 22.9975C47.5321 22.9947 47.6977 23.0321 47.8472 23.1067C47.9967 23.1812 48.1256 23.2906 48.2228 23.4254C49.5423 25.0533 50.8443 26.6971 52.2257 28.2719C52.8686 29.0068 53.6649 29.6127 54.4141 30.2493C56.6012 32.1097 58.7842 33.9701 61.0049 35.7934C61.9344 36.5562 62.9378 37.2299 63.9264 37.9196C64.2318 38.1336 64.3044 38.3648 64.2425 38.7076C63.839 40.9667 63.4355 43.2258 63.032 45.477C62.6769 47.4278 62.046 49.3082 61.4555 51.1912C60.7722 53.3732 60.0042 55.5327 59.22 57.6828C58.5919 59.3997 57.8481 61.0569 57.2361 62.7671C56.6684 64.3618 55.8305 65.7811 54.9198 67.1884C53.7604 68.977 52.6588 70.8043 51.5357 72.6169C51.0259 73.4381 50.5242 74.2634 50.0157 75.0859C49.9424 75.2196 49.8305 75.3288 49.6943 75.3996C49.7168 75.3096 49.7441 75.2209 49.7763 75.1338C50.7017 72.9066 51.6177 70.674 52.5619 68.4548C53.5654 66.0973 54.5688 63.7465 55.1889 61.2469C55.6031 59.5738 56.1412 57.9247 56.6308 56.2769C57.0343 54.9081 57.497 53.5526 57.8494 52.1693C58.2435 50.6304 58.4829 49.0504 58.8972 47.5182C59.5334 45.1647 59.5872 42.7501 59.7971 40.3501C59.8148 40.2115 59.7997 40.0707 59.753 39.9388C59.7063 39.8069 59.6293 39.6875 59.5281 39.59C58.5098 38.5269 57.5104 37.4465 56.499 36.3754C54.7208 34.4902 52.9421 32.6054 51.1631 30.721C50.3614 29.8679 49.5342 29.0479 48.7729 28.1709C47.9766 27.2579 47.2126 26.3104 46.4863 25.3404C46.2192 24.9542 45.819 24.6774 45.3604 24.5616C44.1983 24.2453 43.0415 23.9065 41.8861 23.5689C41.6104 23.4892 41.3737 23.4002 41.2486 23.7949C41.0589 24.3849 41.0495 24.4008 41.5082 24.6148C42.7255 25.1809 43.9468 25.739 45.152 26.3264C45.3774 26.4397 45.5645 26.6157 45.69 26.8327C46.6504 28.6014 47.5731 30.3875 48.5348 32.1562C49.3123 33.5932 50.1041 35.0209 50.9102 36.4392C51.9056 38.204 52.9157 39.9581 53.9218 41.7162C54.0576 41.9775 54.2113 42.2292 54.3818 42.4697C54.6508 42.8086 54.6172 43.1554 54.5163 43.5328C54.1289 45.0212 53.7564 46.5122 53.3797 48.0032C52.8229 50.2105 52.2728 52.4204 51.7051 54.625C51.3998 55.8131 51.0649 56.9931 50.7394 58.1758C50.2767 59.8556 49.853 61.5446 49.3392 63.2083C48.6021 65.5897 47.7627 67.9405 47.0391 70.3272C46.5777 71.8488 45.8554 73.2507 45.1708 74.6647C44.3279 76.4135 43.4859 78.1623 42.6448 79.9111C42.4174 80.3842 42.2103 80.8666 41.9816 81.3384C41.9016 81.4846 41.8118 81.6253 41.7126 81.7596L41.6077 81.7184C41.6629 81.4805 41.7099 81.2427 41.7745 81.0075C42.4228 78.673 43.0738 76.3377 43.7275 74.0016C44.1311 72.5611 44.5655 71.1285 44.9542 69.684C45.4223 67.9449 45.8707 66.2001 46.2993 64.4495C46.8212 62.3299 47.335 60.2077 47.8098 58.0709C48.2698 56.0058 48.6814 53.93 49.1038 51.857C49.4844 49.9965 49.8503 48.1361 50.2269 46.269C50.2888 45.9594 50.387 45.6564 50.4408 45.3454C50.5322 44.8245 50.6197 44.3408 50.3708 43.7866C49.6633 42.2119 49.05 40.5973 48.4084 38.9933C47.5798 36.9283 46.7674 34.8592 45.9334 32.7967C45.3295 31.3004 44.7135 29.8094 44.0719 28.329C43.9387 28.0412 43.7342 27.7912 43.4773 27.6021C42.6703 27.0068 41.8283 26.4606 41.0118 25.8812C40.7724 25.7111 40.6258 25.6978 40.4644 25.9716C40.2371 26.3556 39.9856 26.7251 39.7219 27.0852C39.5632 27.3005 39.5874 27.4506 39.7623 27.6446C40.7186 28.7078 41.6575 29.7895 42.6138 30.8526C42.7148 30.9576 42.79 31.0841 42.8339 31.2223C42.8777 31.3605 42.8889 31.5068 42.8667 31.6499C42.6192 33.9967 42.4161 36.3475 42.1484 38.693C42.0435 39.6139 41.827 40.5242 41.6292 41.4332C41.3172 42.867 41.0199 44.3062 40.6393 45.7215C40.1523 47.5314 39.3641 49.2085 38.1428 50.6623C37.8146 51.053 37.7904 51.0822 37.4138 50.7434C36.9188 50.2969 36.3552 50.0577 35.7029 50.1972C35.327 50.2859 34.9721 50.4456 34.6577 50.6676C34.1197 51.0344 34.0148 51.057 33.6153 50.5042C32.8083 49.3959 32.0967 48.2344 31.7134 46.9162C31.3045 45.5058 30.9256 44.0883 30.5768 42.6637C30.3199 41.6192 30.0818 40.5654 29.9191 39.5036C29.7334 38.2917 29.6339 37.0665 29.5075 35.8452C29.3622 34.4379 29.2385 33.028 29.0824 31.622C29.0601 31.491 29.0689 31.3567 29.1081 31.2296C29.1473 31.1025 29.2159 30.9862 29.3084 30.8898C30.2499 29.8347 31.1807 28.7636 32.133 27.7084C32.3563 27.4626 32.3805 27.2779 32.1774 27.0121C31.9151 26.6692 31.6865 26.2998 31.4592 25.933C31.3247 25.7231 31.1996 25.7018 30.9978 25.8427C30.0643 26.4938 29.0959 27.0985 28.2028 27.8001C27.9203 28.022 27.8127 28.4805 27.6647 28.846C26.6174 31.37 25.5776 33.8913 24.5455 36.41C23.6241 38.6691 22.7458 40.9442 21.8002 43.1873C21.3967 44.1468 21.433 45.065 21.6657 46.055C22.0598 47.7746 22.3517 49.5102 22.7014 51.247C23.0969 53.2164 23.4843 55.1872 23.9187 57.1486C24.4271 59.437 24.9477 61.724 25.5261 63.9964C26.2282 66.7605 26.9895 69.5112 27.74 72.2647C28.2498 74.1358 28.7838 76.0002 29.3057 77.8673C29.633 79.0341 29.9567 80.2017 30.2768 81.3702C30.3038 81.4646 30.3105 81.5643 30.328 81.6613L30.2338 81.7038Z" stroke="#ECECEC" mask="url(#path-1-inside-1_334_88)"/>
</g>
<defs>
<filter id="filter0_di_334_88" x="0" y="0.379807" width="72" height="89.3798" filterUnits="userSpaceOnUse" color-interpolation-filters="sRGB">
<feFlood flood-opacity="0" result="BackgroundImageFix"/>
<feColorMatrix in="SourceAlpha" type="matrix" values="0 0 0 0 0 0 0 0 0 0 0 0 0 0 0 0 0 0 127 0" result="hardAlpha"/>
<feOffset dy="2"/>
<feGaussianBlur stdDeviation="3"/>
<feComposite in2="hardAlpha" operator="out"/>
<feColorMatrix type="matrix" values="0 0 0 0 0.0705882 0 0 0 0 0.0705882 0 0 0 0 0.0705882 0 0 0 0.32 0"/>
<feBlend mode="normal" in2="BackgroundImageFix" result="effect1_dropShadow_334_88"/>
<feBlend mode="normal" in="SourceGraphic" in2="effect1_dropShadow_334_88" result="shape"/>
<feColorMatrix in="SourceAlpha" type="matrix" values="0 0 0 0 0 0 0 0 0 0 0 0 0 0 0 0 0 0 127 0" result="hardAlpha"/>
<feOffset dx="-2" dy="-2"/>
<feGaussianBlur stdDeviation="4"/>
<feComposite in2="hardAlpha" operator="arithmetic" k2="-1" k3="1"/>
<feColorMatrix type="matrix" values="0 0 0 0 0 0 0 0 0 0 0 0 0 0 0 0 0 0 0.2 0"/>
<feBlend mode="normal" in2="shape" result="effect2_innerShadow_334_88"/>
</filter>
<linearGradient id="paint0_linear_334_88" x1="66" y1="34" x2="6" y2="34" gradientUnits="userSpaceOnUse">
<stop offset="0.467946" stop-color="#C3161A"/>
<stop offset="0.541" stop-color="#002FA9"/>
</linearGradient>
</defs>
</svg>
